<svg viewBox="0 0 619 533" fill="none" xmlns="http://www.w3.org/2000/svg">
<path d="M94.3105 269.881C-31.4372 329.845 -31.4371 427.065 94.312 487.029C220.063 546.992 423.94 546.992 549.689 487.03C675.437 427.066 675.437 329.846 549.688 269.881C423.939 209.918 220.06 209.918 94.3105 269.881Z" fill="#F1F1F1"/>
<path d="M225.02 414.682C201.899 425.708 201.899 443.583 225.02 454.609C248.142 465.634 285.628 465.634 308.75 454.609C331.871 443.583 331.869 425.708 308.75 414.682C285.626 403.657 248.14 403.657 225.02 414.682Z" fill="#E1E1E1"/>
<path d="M70.9884 397.965C47.8678 408.991 47.8678 426.866 70.9884 437.891C94.1105 448.917 131.597 448.917 154.719 437.891C177.839 426.866 177.839 408.991 154.719 397.965C131.595 386.939 94.1091 386.939 70.9884 397.965Z" fill="#E1E1E1"/>
<path d="M394.838 457.014C371.718 468.04 371.718 485.915 394.838 496.94C417.96 507.966 455.446 507.966 478.567 496.941C501.688 485.915 501.688 468.04 478.567 457.014C455.445 445.988 417.959 445.988 394.838 457.014Z" fill="#E1E1E1"/>
<path d="M533.768 384.137C533.768 384.137 535.32 354.283 550.467 337.675C565.612 321.065 584.194 318.67 593.413 323.345C600.129 326.752 599.225 336.864 587.595 343.474C575.964 350.083 553.546 366.887 550.043 377.866L533.768 384.137Z" fill="#2B454E"/>
<path d="M543.712 379.786C544.221 379.76 544.614 379.399 544.59 378.976C543.033 351.892 571.81 335.002 579.602 331.962C580.072 331.778 580.27 331.317 580.05 330.932C579.828 330.543 579.27 330.384 578.802 330.561C570.773 333.695 541.112 351.107 542.717 379.05C542.741 379.477 543.181 379.808 543.697 379.787C543.697 379.787 543.709 379.786 543.712 379.786Z" fill="white"/>
<path d="M540.965 374.711C543.07 374.462 545.107 374.152 546.492 372.891C548.256 371.286 548.106 368.846 548.919 366.784C550.248 363.406 554.286 361.116 558.495 360.389C562.706 359.664 567.082 360.259 571.26 361.107C579.699 362.818 587.811 358.527 596.27 359.034C599.291 359.216 602.359 359.808 604.835 361.247C607.312 362.688 609.106 365.088 608.935 367.586C608.792 369.668 607.328 371.569 605.451 372.963C603.572 374.358 601.294 375.321 599.043 376.269C596.57 377.31 594.096 378.352 591.623 379.393C590.396 379.91 589.148 380.439 588.173 381.241C586.338 382.752 585.066 385.674 585.579 387.771C586.153 390.109 588.475 391.935 589.165 394.253C590.071 397.295 587.821 400.542 584.592 402.186C581.363 403.828 577.387 404.138 573.599 403.958C569.813 403.778 566.064 403.151 562.273 403.096C559.717 403.058 557.056 403.309 554.884 404.423C552.236 405.781 550.695 408.222 549.694 410.661C549.051 412.23 548.554 413.882 547.372 415.218C546.147 416.605 544.282 417.525 542.331 418.115C538.593 419.245 534.247 419.278 530.516 418.096C527.388 417.106 525.857 414.185 524.689 411.66C523.518 409.124 522.96 406.096 523.042 403.405C523.259 396.374 525.176 388.787 528.863 382.441C530.624 379.411 533.181 376.387 537.047 375.337C538.282 375.003 539.637 374.868 540.965 374.711Z" fill="#375A64"/>
<path d="M532.768 407.168C533.114 407.168 533.436 406.99 533.556 406.706C542.377 385.805 584.154 367.611 599.428 365.527C599.885 365.464 600.192 365.111 600.118 364.734C600.042 364.357 599.602 364.102 599.158 364.165C583.592 366.289 540.998 384.877 531.979 406.25C531.826 406.611 532.055 407.004 532.492 407.129C532.583 407.157 532.676 407.168 532.768 407.168Z" fill="white"/>
<path d="M570.307 395.724C570.557 395.724 570.805 395.63 570.97 395.454C571.25 395.153 571.181 394.718 570.816 394.486C570.436 394.245 561.36 388.585 547.613 388.329H547.594C547.142 388.329 546.769 388.63 546.759 389.004C546.75 389.385 547.115 389.701 547.577 389.71C560.781 389.953 569.71 395.524 569.799 395.581C569.949 395.676 570.13 395.724 570.307 395.724Z" fill="white"/>
<path d="M532.328 423.347C534 422.549 535.356 420.524 535.356 418.825L535.357 172.549C535.357 170.849 533.912 168.782 532.129 167.933L181.335 0.666229C179.552 -0.183472 176.752 -0.225983 175.079 0.571686C173.408 1.36819 172.052 3.39255 172.052 5.09308L172.05 251.368C172.05 253.069 173.494 255.136 175.278 255.986L526.074 423.251C527.857 424.102 530.657 424.144 532.328 423.347Z" fill="#375A64"/>
<path d="M526.687 423.482C526.732 423.494 526.776 423.519 526.822 423.519C526.926 423.568 527.029 423.593 527.134 423.618C527.208 423.642 527.284 423.667 527.373 423.68C527.507 423.716 527.656 423.753 527.82 423.766C527.909 423.789 528.014 423.814 528.118 423.814C528.267 423.839 528.446 423.864 528.61 423.876C529.937 423.999 531.323 423.827 532.322 423.346C534.006 422.546 535.348 420.528 535.348 418.828L535.362 204.121L529.296 207.016V421.71C529.296 422.916 528.564 423.618 527.507 423.618C527.358 423.618 527.224 423.605 527.075 423.568C527.045 423.568 527.029 423.568 527.001 423.555C526.896 423.544 526.792 423.519 526.687 423.482Z" fill="#00DFBF"/>
<path opacity="0.809998" d="M526.687 423.482C526.732 423.494 526.776 423.519 526.822 423.519C526.926 423.568 527.029 423.593 527.134 423.618C527.208 423.642 527.284 423.667 527.373 423.68C527.507 423.716 527.656 423.753 527.82 423.766C527.909 423.789 528.014 423.814 528.118 423.814C528.267 423.839 528.446 423.864 528.61 423.876C529.937 423.999 531.323 423.827 532.322 423.346C534.006 422.546 535.348 420.528 535.348 418.828L535.362 204.121L529.296 207.016V421.71C529.296 422.916 528.564 423.618 527.507 423.618C527.358 423.618 527.224 423.605 527.075 423.568C527.045 423.568 527.029 423.568 527.001 423.555C526.896 423.544 526.792 423.519 526.687 423.482Z" fill="#E1E1E1"/>
<path d="M529.296 207.015L535.363 204.122V251.806L529.296 254.723V207.015Z" fill="#07A6FF"/>
<path d="M528.357 172.812C528.938 173.637 529.296 174.585 529.296 175.434V207.015L535.362 204.122V172.553C535.362 172.443 535.362 172.344 535.348 172.233C535.318 172.012 535.274 171.79 535.213 171.569C535.05 171.015 534.766 170.436 534.408 169.919L528.357 172.812Z" fill="#1A2E35"/>
<path d="M172.058 5.08919V19.3341L429.195 141.947C430.97 142.795 432.415 142.106 432.415 140.407V135.014C432.415 133.315 433.861 132.626 435.65 133.476L513.957 170.818C515.746 171.668 517.191 173.736 517.191 175.435V180.828C517.191 182.527 518.637 184.595 520.412 185.445L529.296 189.68V175.435C529.296 173.736 527.851 171.668 526.076 170.818L175.278 3.55052C173.505 2.70084 172.058 3.39099 172.058 5.08919Z" fill="#2B454E"/>
<path d="M172.043 251.364C172.043 253.063 173.49 255.131 175.278 255.981L526.077 423.249C527.85 424.098 529.296 423.408 529.296 421.71V189.681L520.412 185.445C518.638 184.596 515.745 171.668 513.956 170.817L436.96 134.099C435.171 133.251 430.969 142.796 429.196 141.946L172.059 19.3347V36.67L172.043 251.364Z" fill="#00DFBF"/>
<path opacity="0.899994" d="M172.043 251.364C172.043 253.063 173.49 255.131 175.278 255.981L526.077 423.249C527.85 424.098 529.296 423.408 529.296 421.71V189.681L520.412 185.445C518.638 184.596 515.745 171.668 513.956 170.817L436.96 134.099C435.171 133.251 430.969 142.796 429.196 141.946L172.059 19.3347V36.67L172.043 251.364Z" fill="white"/>
<path opacity="0.399994" d="M172.058 19.3344L429.195 141.946C429.271 141.982 429.351 142 429.436 142C431.24 142 434.901 134.046 436.719 134.046C436.803 134.046 436.883 134.063 436.96 134.1L513.957 170.818C515.746 171.668 518.637 184.595 520.412 185.445L529.296 189.68V421.71C529.296 422.915 528.569 423.612 527.511 423.612C527.079 423.612 526.591 423.495 526.076 423.248L175.278 255.981C173.489 255.131 172.042 253.063 172.042 251.364L172.058 36.6696V19.3344ZM173.489 21.3812V36.6696L173.473 251.364C173.473 252.641 174.651 254.32 175.993 254.957L526.793 422.226C527.178 422.41 527.424 422.431 527.511 422.431C527.848 422.431 527.865 421.83 527.865 421.71V190.362L519.693 186.467C518.426 185.86 517.624 183.794 515.82 178.476C515.009 176.085 513.791 172.495 513.136 171.791L436.777 135.377C436.116 135.99 435.009 137.599 434.309 138.617C432.246 141.616 431.091 143.182 429.436 143.182C429.1 143.182 428.769 143.107 428.48 142.969L173.489 21.3812Z" fill="#07A6FF"/>
<path d="M529.296 207.015V254.723L172.059 84.3967V36.6689L529.296 207.015Z" fill="#2CB3FF"/>
<path d="M172.058 19.3338V36.6691L529.296 207.015V189.68L522.661 186.506C520.887 185.656 520.29 184.364 519.442 181.889L517.191 175.435C516.481 173.193 515.746 171.667 513.957 170.818L436.96 134.099C435.172 133.25 433.775 133.156 432.415 135.014L429.655 139.151C428.642 140.597 428.135 141.446 426.361 140.597L172.058 19.3338Z" fill="#F0F0F0"/>
<path d="M187.189 14.0226C184.947 12.9531 183.129 13.8205 183.129 15.9595C183.129 18.0985 184.947 20.6995 187.189 21.769C189.433 22.8385 191.251 21.9711 191.251 19.8321C191.251 17.6931 189.433 15.0921 187.189 14.0226Z" fill="#07A6FF"/>
<path d="M201.812 20.9852C199.569 19.9157 197.75 20.7831 197.75 22.9221C197.75 25.0611 199.569 27.6622 201.812 28.7317C204.054 29.8012 205.873 28.935 205.873 26.796C205.873 24.6558 204.054 22.0547 201.812 20.9852Z" fill="#07A6FF"/>
<path d="M216.433 27.9472C214.191 26.8777 212.371 27.7451 212.371 29.8841C212.371 32.0231 214.191 34.6241 216.433 35.6936C218.676 36.7631 220.494 35.8969 220.494 33.7579C220.494 31.6177 218.676 29.0167 216.433 27.9472Z" fill="#07A6FF"/>
<path opacity="0.5" d="M514.491 190.929L519.558 193.345L517.626 190.277C517.456 190.007 517.439 189.672 517.588 189.527C517.737 189.38 517.994 189.484 518.163 189.751L520.912 194.119C520.916 194.124 520.916 194.129 520.92 194.135C520.95 194.186 520.972 194.241 520.993 194.297C521 194.315 521.01 194.332 521.016 194.35C521.037 194.425 521.05 194.501 521.05 194.575C521.05 194.649 521.037 194.713 521.016 194.768C521.01 194.779 521 194.787 520.993 194.798C520.972 194.835 520.95 194.868 520.92 194.891C520.916 194.893 520.916 194.896 520.912 194.899L518.163 196.644C518.086 196.694 517.99 196.69 517.894 196.644C517.781 196.591 517.669 196.476 517.588 196.32C517.439 196.034 517.456 195.715 517.626 195.608L519.558 194.381L514.491 191.966C514.265 191.858 514.084 191.539 514.084 191.253C514.084 190.967 514.265 190.822 514.491 190.929Z" fill="#375A64"/>
<path opacity="0.5" d="M510.259 188.912L505.192 186.496L507.124 185.27C507.294 185.162 507.311 184.843 507.163 184.556C507.014 184.269 506.756 184.127 506.587 184.233L503.839 185.979C503.836 185.981 503.835 185.986 503.832 185.988C503.8 186.01 503.779 186.043 503.757 186.079C503.752 186.091 503.74 186.098 503.734 186.111C503.713 186.164 503.7 186.228 503.7 186.303C503.7 186.377 503.713 186.453 503.734 186.528C503.74 186.546 503.752 186.563 503.757 186.581C503.779 186.637 503.8 186.693 503.832 186.742C503.835 186.747 503.836 186.754 503.839 186.759L506.587 191.127C506.665 191.249 506.761 191.337 506.856 191.382C506.97 191.436 507.083 191.43 507.163 191.351C507.311 191.206 507.294 190.87 507.124 190.602L505.192 187.533L510.259 189.948C510.485 190.056 510.667 189.912 510.667 189.625C510.667 189.339 510.485 189.019 510.259 188.912Z" fill="#375A64"/>
<path opacity="0.5" d="M493.638 176.861C493.669 176.609 493.936 176.641 494.07 176.914L494.765 178.316C495.947 178.211 497.382 179.164 498.35 180.858C499.604 183.052 499.604 185.649 498.35 186.646C497.723 187.145 496.899 187.151 496.075 186.757C495.25 186.365 494.426 185.573 493.8 184.475C493.639 184.197 493.639 183.869 493.8 183.742C493.958 183.616 494.216 183.739 494.376 184.018C495.312 185.653 496.837 186.384 497.774 185.638C498.71 184.893 498.71 182.954 497.774 181.316C497.108 180.151 496.148 179.461 495.311 179.418L495.834 180.475C495.969 180.749 495.846 181.004 495.633 180.89L493.566 179.775C493.422 179.697 493.313 179.48 493.336 179.307L493.638 176.861Z" fill="#375A64"/>
<path opacity="0.5" d="M439.182 142.012L437.335 138.783C437.117 138.4 437.117 137.95 437.335 137.778C437.554 137.604 437.907 137.773 438.126 138.155L439.973 141.383L441.819 139.915C442.038 139.743 442.391 139.911 442.61 140.292C442.828 140.674 442.828 141.124 442.61 141.298L440.763 142.766L442.61 145.996C442.828 146.377 442.828 146.827 442.61 147C442.5 147.087 442.358 147.089 442.215 147.02C442.072 146.952 441.929 146.814 441.819 146.623L439.973 143.393L438.126 144.862C438.017 144.948 437.873 144.95 437.731 144.882C437.588 144.814 437.445 144.676 437.335 144.485C437.117 144.104 437.117 143.653 437.335 143.481L439.182 142.012Z" fill="#375A64"/>
<path d="M486.915 180.831V175.437C486.915 173.737 485.469 171.67 483.688 170.82L193.446 32.489C191.662 31.6393 190.218 32.3282 190.218 34.0276V39.4212C190.219 41.1217 191.663 43.1886 193.446 44.0395L483.688 182.37C485.469 183.22 486.915 182.531 486.915 180.831Z" fill="white"/>
<path d="M198.895 40.0485L197.587 40.8284C197.372 40.9584 197.269 41.1889 197.309 41.463L197.577 43.3054L196.162 41.8199C195.96 41.606 195.7 41.4997 195.435 41.5245L193.738 41.6982C193.765 41.6746 193.662 41.5138 193.678 41.4146L194.003 39.4907C194.035 39.2945 193.978 39.0688 193.852 38.8691L192.482 36.7466L194.05 37.2429C194.385 37.3481 194.717 37.2382 194.865 36.9735L195.571 35.735C195.574 35.7409 195.576 35.748 195.579 35.7551L196.425 38.0513C196.506 38.2675 196.66 38.459 196.85 38.5795L198.746 39.7861C198.834 39.844 198.89 39.9764 198.895 40.0485ZM197.837 44.3418C197.923 44.3418 198.005 44.3276 198.075 44.304C198.305 44.2248 198.533 44.0014 198.477 43.6126L198.153 41.3791C198.152 41.3685 198.151 41.3626 198.149 41.3602L199.458 40.5802C199.639 40.4715 199.74 40.2931 199.744 40.0745C199.752 39.7566 199.558 39.4174 199.265 39.2307L197.369 38.0241C197.328 37.9981 197.271 37.9307 197.239 37.8456L196.392 35.5507C196.253 35.1737 195.917 34.9054 195.555 34.8841C195.296 34.8652 195.059 34.9846 194.941 35.189V35.1902L194.177 36.5315L192.46 35.9867C192.197 35.9052 191.928 35.9572 191.753 36.1203C191.514 36.3424 191.504 36.7253 191.729 37.0728L193.1 39.1988C193.15 39.2768 193.167 39.3548 193.16 39.3949L192.836 41.3177C192.781 41.6568 192.98 41.9972 193.203 42.1851C193.393 42.3434 193.619 42.4191 193.842 42.3943L195.538 42.2217L197.188 44.0428C197.395 44.2626 197.633 44.3418 197.837 44.3418Z" fill="#E1E1E1"/>
<g opacity="0.5">
<g opacity="0.5">
<g opacity="0.5">
<path opacity="0.5" d="M186.411 36.1636C186.799 36.1636 187.174 35.9981 187.381 35.7015C187.691 35.2595 187.507 34.6958 186.974 34.4406L177.889 30.1094C177.353 29.8518 176.67 30.0066 176.363 30.4474C176.055 30.8894 176.238 31.4531 176.772 31.7083L185.853 36.0407C186.029 36.1234 186.223 36.1636 186.411 36.1636Z" fill="#375A64"/>
</g>
</g>
</g>
<path opacity="0.5" d="M186.411 31.8311C186.799 31.8311 187.174 31.6656 187.381 31.3702C187.691 30.9282 187.507 30.3633 186.974 30.108L177.889 25.7769C177.353 25.5216 176.67 25.6741 176.363 26.1149C176.055 26.5569 176.238 27.1217 176.772 27.3758L185.853 31.7082C186.029 31.7921 186.223 31.8311 186.411 31.8311Z" fill="#375A64"/>
<path opacity="0.100006" d="M513.798 265.974L414.992 218.858V351.89L514.084 398.87L513.798 265.974Z" fill="#07A6FF"/>
<path opacity="0.5" d="M186.411 40.4966C186.799 40.4966 187.174 40.3311 187.381 40.0345C187.691 39.5925 187.507 39.0288 186.974 38.7736L177.889 34.4424C177.353 34.1848 176.67 34.3384 176.363 34.7804C176.055 35.2224 176.238 35.7861 176.772 36.0413L185.853 40.3725C186.029 40.4564 186.223 40.4966 186.411 40.4966Z" fill="#375A64"/>
<path d="M529.296 189.68V207.015L535.363 204.122V186.799L529.296 189.68Z" fill="#E1E1E1"/>
<path opacity="0.100006" d="M394.461 239.274L197.235 145.227C195.522 144.412 194.137 144.991 194.137 146.521C194.137 148.053 195.524 149.954 197.235 150.771L394.461 244.817C396.172 245.633 397.559 245.054 397.559 243.523C397.559 241.992 396.171 240.09 394.461 239.274Z" fill="#07A6FF"/>
<path opacity="0.100006" d="M394.461 250.403L197.235 156.355C195.522 155.539 194.137 156.12 194.137 157.65C194.137 159.18 195.524 161.083 197.235 161.898L394.461 255.945C396.172 256.762 397.559 256.182 397.559 254.651C397.559 253.121 396.171 251.218 394.461 250.403Z" fill="#07A6FF"/>
<path opacity="0.100006" d="M394.461 261.531L197.235 167.484C195.522 166.669 194.137 167.248 194.137 168.778C194.137 170.31 195.524 172.211 197.235 173.027L394.461 267.074C396.172 267.89 397.559 267.311 397.559 265.78C397.559 264.249 396.171 262.347 394.461 261.531Z" fill="#07A6FF"/>
<path opacity="0.100006" d="M394.461 272.659L256.856 206.52C255.145 205.704 253.758 206.284 253.758 207.814C253.758 209.345 255.145 211.247 256.857 212.064L394.461 278.201C396.172 279.018 397.559 278.439 397.559 276.907C397.559 275.377 396.171 273.474 394.461 272.659Z" fill="#00DFBF"/>
<path opacity="0.100006" d="M394.461 294.916L197.235 200.869C195.522 200.054 194.137 200.633 194.137 202.163C194.137 203.695 195.524 205.596 197.235 206.411L394.461 300.458C396.172 301.275 397.559 300.696 397.559 299.164C397.559 297.634 396.171 295.731 394.461 294.916Z" fill="#07A6FF"/>
<path opacity="0.100006" d="M394.461 306.044L197.235 211.997C195.522 211.182 194.137 211.761 194.137 213.291C194.137 214.823 195.524 216.724 197.235 217.541L394.461 311.587C396.172 312.403 397.559 311.824 397.559 310.293C397.559 308.762 396.171 306.86 394.461 306.044Z" fill="#07A6FF"/>
<path opacity="0.100006" d="M394.461 317.172L197.235 223.124C195.522 222.308 194.137 222.889 194.137 224.419C194.137 225.949 195.524 227.852 197.235 228.668L394.461 322.714C396.172 323.531 397.559 322.951 397.559 321.42C397.559 319.89 396.171 317.987 394.461 317.172Z" fill="#07A6FF"/>
<path opacity="0.100006" d="M394.461 328.3L322 293.367C320.288 292.552 318.902 293.131 318.902 294.663C318.902 296.193 320.29 298.096 322 298.911L394.461 333.843C396.172 334.659 397.559 334.08 397.559 332.549C397.559 331.018 396.171 329.116 394.461 328.3Z" fill="#00DFBF"/>
<path d="M130.91 264.425C120.426 236.318 110.222 217.809 120.616 212.078C130.297 213.56 134.636 217.514 136.692 228.057C138.851 239.114 143.338 254.516 145.956 263.411C148.047 270.512 152.126 279.441 155.622 284.876C156.24 285.838 157.274 286.563 158.479 286.953C161.708 287.998 163.261 289.362 165.896 290.917C167.961 292.133 169.48 292.27 169.386 292.78C169.266 293.437 168.333 294.623 166.147 294.428C165.046 294.33 163.535 293.862 161.638 293.231C161.638 293.231 163.547 297.46 167.286 300.043C172.354 303.544 171.597 307.045 163.435 307.454C160.513 307.6 153.741 305.399 147.466 296.57C145.66 294.027 143.561 289.864 141.876 286.393C137.487 277.355 133.007 270.049 130.91 264.425Z" fill="#FFAAA8"/>
<path d="M118.764 211.745C118.764 211.745 126.833 211.397 131.72 215.85C136.607 220.302 142.319 246.92 142.319 246.92C142.319 246.92 136.963 252.998 122.848 250.509L118.764 211.745Z" fill="#07A6FF"/>
<path d="M81.0142 416.498H91.8484V400.544H81.0142V416.498Z" fill="#FFAAA8"/>
<path d="M118.577 399.693L129.404 400.013L129.946 383.129L118.577 382.809V399.693Z" fill="#FFAAA8"/>
<path d="M79.4892 262.415C79.4892 271.314 81.0746 342.934 81.0746 342.934C80.8242 345.495 78.0312 350.216 78.6364 360.052C79.4577 373.412 80.5509 408.522 80.5509 408.522C80.5509 408.522 85.8106 411.165 92.6141 408.726C92.6141 408.726 102.86 360.098 104.802 346.858C106.496 335.301 109.37 296.396 109.37 296.396L115.243 341.634C115.243 341.634 113.247 348.525 113.9 356.444C114.407 362.569 117.891 394.464 117.891 394.464C117.891 394.464 122.99 397.439 130.399 395.287C130.399 395.287 136.562 347.252 136.688 341.633C136.829 335.227 133.085 262.319 133.085 262.319L79.4892 262.415Z" fill="#2B454E"/>
<path d="M91.8485 411.899V410.566C92.8858 410.954 95.2925 418.859 99.5921 422.232C103.009 424.913 107.672 428.01 108.857 430.999C110.09 434.107 102.365 435.825 99.1714 435.338C95.4613 434.773 89.0326 432.526 87.4187 430.443C85.8047 428.361 85.0492 425.287 83.7372 423.761C82.4265 422.234 79.4032 420.53 78.6935 418.763C78.3043 417.792 78.7665 415.666 79.3131 413.87C79.8167 412.222 80.3604 410.411 81.0143 410.566C81.0172 410.766 81.0143 411.582 81.0143 411.582C81.8013 412.331 83.9775 413.076 86.4314 413.156C88.0153 413.209 91.8614 412.939 91.8485 411.899Z" fill="#1A2E35"/>
<path d="M129.519 397.139C130.082 397.156 130.54 397.839 131.78 398.993C133.28 400.39 135.733 401.896 138.153 402.938C142.209 404.685 150.097 407.373 153.666 408.756C155.897 409.62 155.791 411.937 153.487 413.256C151.182 414.574 145.616 415.525 138.934 414.239C135.294 413.538 130.557 410.647 127.556 410.803C124.556 410.959 118.944 410.921 116.731 409.608C114.517 408.295 115.403 405.492 116.028 403.083C116.711 400.454 117.565 396.353 118.578 396.533V397.439C119.88 399.135 126.601 399.827 129.462 398.577L129.519 397.139Z" fill="#1A2E35"/>
<path d="M109.371 296.397C109.371 296.397 118.03 294.299 124.457 288.956C124.457 288.956 121.547 293.644 112.889 298.008L114.742 338.405L109.371 296.397Z" fill="#1A2E35"/>
<path d="M85.1263 213.872C85.1263 213.872 76.6473 214.513 77.2496 227.853L79.124 249.102L79.0725 280.989C87.0393 288.445 122.356 287.899 134.448 280.393C134.448 280.393 133.077 242.655 132.26 228.134C131.681 217.811 128.804 212.614 116.52 211.477L101.413 212.025L85.1263 213.872Z" fill="#07A6FF"/>
<g opacity="0.300003">
<path opacity="0.300003" d="M109.2 220.869L111.144 232.071L115.676 232.001L110.563 232.668L109.2 220.869Z" fill="black"/>
</g>
<path d="M97.9017 183.811C97.9017 191.473 105.123 197.686 114.03 197.686C122.938 197.686 129.758 191.467 130.16 183.811C130.869 170.262 122.938 169.937 114.03 169.937C105.123 169.937 97.9017 176.148 97.9017 183.811Z" fill="#1A2E35"/>
<path d="M88.7089 190.692C88.7089 190.692 91.1828 200.69 92.1744 202.332C93.1659 203.975 95.2163 204.442 95.2163 204.442L95.0432 197.409L88.7089 190.692Z" fill="#1A2E35"/>
<path d="M91.8136 176.369C91.8136 176.369 90.0394 176.002 88.155 178.433C86.5395 180.518 86.1733 185.201 88.7087 190.692L93.3689 191.151L91.8136 176.369Z" fill="#1A2E35"/>
<path d="M94.7659 191.155C93.8316 191.635 92.4981 190.092 91.3448 189.054C90.1945 188.018 86.4328 186.601 84.5556 190.001C82.6426 193.468 86.2111 198.047 89.1743 198.847C94.2766 200.225 95.0421 197.409 95.0421 197.409L95.4327 213.245C102.208 221.901 117.556 221.588 112.037 212.827L112.023 208.007C112.023 208.007 116.647 208.611 118.902 208.311C122.655 207.811 125.018 205.263 126.155 201.769C127.985 196.155 128.679 191.623 127.127 180.583C125.427 168.483 109.066 168.357 100.232 173.141C91.3978 177.924 94.7659 191.155 94.7659 191.155Z" fill="#FFAAA8"/>
<path d="M95.3459 209.695C95.3459 209.695 97.7297 213.952 101.982 216.562C105.89 218.961 110.009 219.379 110.009 219.379C110.009 219.379 106.036 221.554 104.344 224.633C102.655 227.712 90.733 219.236 90.8417 213.224C90.8417 213.224 92.7118 207.184 95.2744 206.796L95.3459 209.695Z" fill="#1A2E35"/>
<path d="M110.009 219.38C110.009 219.38 113.685 217.872 112.038 212.826L112.022 208.007L113.633 208.184C114.887 209.118 116.861 211.312 117.506 213.727C117.876 215.107 118.783 222.099 117.167 223.489C115.698 224.752 113.304 219.756 110.009 219.38Z" fill="#1A2E35"/>
<path d="M101.037 177.962C100.612 177.919 100.164 177.885 99.7736 178.031C98.3871 178.551 98.0895 182.111 97.8463 183.14C97.025 186.607 96.3453 192.481 94.7657 192.508C94.295 192.515 92.5093 189.965 91.3461 189.054C89.735 187.793 91.8139 176.369 91.8139 176.369C91.8139 176.369 90.2658 173.53 93.3692 170.591C96.2681 167.845 100.828 167.239 104.995 167.048C109.901 166.825 114.886 167.132 119.721 166.245C121.257 165.964 122.768 165.562 124.334 165.428C124.48 165.415 124.641 165.409 124.754 165.486C124.913 165.593 124.89 165.793 124.849 165.959C124.548 167.155 124.03 168.314 123.318 169.385C126.197 169.196 129.048 168.732 131.798 168.008C131.956 167.967 132.126 167.924 132.282 167.964C132.605 168.049 132.662 168.404 132.644 168.684C132.448 171.553 130.802 175.87 127.984 177.557C125.782 178.874 122.326 179.68 119.61 179.737C112.024 179.899 107.314 178.577 101.037 177.962Z" fill="#1A2E35"/>
<path d="M91.8219 176.972L86.173 174.362C86.9743 172.97 88.8887 172.425 90.4498 173.146C92.0094 173.867 92.6246 175.58 91.8219 176.972Z" fill="#1A2E35"/>
<path d="M112.024 208.007C112.024 208.007 103.645 206.554 100.716 205.216C98.756 204.319 97.142 202.765 96.667 201.77C96.667 201.77 97.215 203.907 98.9677 205.834C101.11 208.19 112.022 209.925 112.022 209.925L112.024 208.007Z" fill="#FF9090"/>
<path d="M110.009 189.353C110.009 190.183 109.258 190.853 108.331 190.851C107.403 190.848 106.651 190.175 106.651 189.345C106.651 188.517 107.403 187.847 108.331 187.849C109.258 187.851 110.009 188.525 110.009 189.353Z" fill="#1A2E35"/>
<path d="M107.313 183.374L103.721 185.08C103.191 184.192 103.566 183.091 104.558 182.619C105.551 182.148 106.784 182.487 107.313 183.374Z" fill="#1A2E35"/>
<path d="M111.264 199.331L115.097 200.568C114.718 201.513 113.553 202.002 112.493 201.661C111.436 201.318 110.885 200.275 111.264 199.331Z" fill="#FF9090"/>
<path d="M125.412 184.645L122.136 182.475C122.805 181.668 124.079 181.5 124.984 182.1C125.888 182.699 126.08 183.838 125.412 184.645Z" fill="#1A2E35"/>
<path d="M123.974 188.942C123.974 189.771 123.223 190.441 122.294 190.438C121.367 190.436 120.616 189.763 120.616 188.934C120.616 188.106 121.367 187.436 122.294 187.438C123.223 187.44 123.974 188.113 123.974 188.942Z" fill="#1A2E35"/>
<path d="M114.989 187.783L115.184 196.542L121.202 195.402L114.989 187.783Z" fill="#FF9090"/>
<path d="M68.6408 196.587C66.2256 193.938 61.3308 199.818 59.0658 203.87C56.8023 207.922 56.7694 210.217 58.6194 211.827C60.4709 213.435 63.9821 212.459 67.4948 208.621C71.0074 204.781 70.0216 198.543 68.6408 196.587Z" fill="#00DFBF"/>
<g opacity="0.5">
<path opacity="0.5" d="M68.6408 196.587C66.2256 193.938 61.3308 199.818 59.0658 203.87C56.8023 207.922 56.7694 210.217 58.6194 211.827C60.4709 213.435 63.9821 212.459 67.4948 208.621C71.0074 204.781 70.0216 198.543 68.6408 196.587Z" fill="black"/>
</g>
<path d="M51.6221 197.376C60.1541 213.965 72.153 223.242 77.5185 233.887C84.5553 233.492 90.031 219.476 84.7942 213.479C84.7942 213.479 64.2148 195.081 62.3504 187.849C60.6978 181.43 58.4743 170.841 58.6703 165.421C58.7033 164.516 59.1897 163.68 59.9366 163.016C62.0943 161.097 62.0972 159.556 63.4836 157.436C64.5653 155.783 65.7486 155.165 65.4124 154.793C64.9774 154.316 63.6095 153.693 61.9054 154.58C61.0512 155.027 60.4932 155.55 59.2513 156.684C59.2513 156.684 58.6961 153.76 60.466 150.468C62.8598 146.006 62.2774 143.728 54.9846 145.318C50.4131 146.314 47.5429 149.458 46.8604 158.53C46.6615 161.144 46.4054 166.556 46.7802 169.861C47.5715 176.844 48.0794 184.122 49.1196 189.903C49.5804 192.47 50.3931 194.987 51.6221 197.376Z" fill="#FFAAA8"/>
<path d="M86.8741 213.674L68.717 196.541C68.717 196.541 70.8718 200.721 66.1515 206.798C61.4284 212.874 58.6197 211.827 58.6197 211.827C58.6197 211.827 69.3322 224.744 72.2068 229.068C75.0813 233.392 78.0602 237.038 78.0602 237.038C78.0602 237.038 78.7771 238.564 81.4455 238.564C84.1155 238.564 91.1737 228.803 86.8741 213.674Z" fill="#07A6FF"/>
<path d="M234.106 252.189L225.558 261.589L234.739 270.279L246.57 258.852L234.106 252.189Z" fill="#FF9090"/>
<path d="M262.07 230.823C254.616 231.112 251.063 232.063 247.161 235.86C243.352 239.566 223.74 262.971 223.74 262.971C223.74 262.971 227.19 270.958 234.739 270.279L248.466 258.591L262.07 230.823Z" fill="#375A64"/>
<path d="M298.645 425.963C298.889 427.446 299.404 429.178 299.501 433.376C299.604 437.876 300.604 439.474 300.737 443.167C300.888 447.386 300.006 448.966 297.933 451.337C295.86 453.709 290.418 455.861 288.119 451.851C285.791 447.794 286.114 445.216 286.85 441.077C287.609 436.797 287.705 434.433 288.146 431.169C288.535 428.293 289 426.108 289 426.108L298.645 425.963Z" fill="#1A2E35"/>
<path d="M283.179 390.578L301.127 390.309C300.86 400.205 298.955 416.677 298.646 425.962C298.587 427.71 298.699 439.543 297.901 443.139C296.7 448.541 288.935 447.812 288.525 444.579C288.112 441.345 289.025 427.532 289 426.106C289.068 420.153 285.69 404.611 283.917 393.922C283.83 393.398 283.262 391.09 283.179 390.578Z" fill="#FFBEA7"/>
<path d="M256.801 418.262C256.801 418.262 257.728 418.306 257.875 418.93C258.048 419.673 258.087 420.847 258.462 422.066C258.981 423.762 259.413 426.555 259.101 427.936C258.791 429.318 254.972 431.376 252.359 431.738C249.748 432.099 246.062 434.231 244.015 435.822C241.508 437.772 236.097 439.612 232.412 439.591C228.053 439.565 225.013 438.391 223.577 436.464C222.076 434.45 224.885 434.301 229.87 431.631C231.001 431.025 232.288 430.339 233.737 429.558C241.631 425.298 244.521 423.016 246.755 418.756L256.801 418.262Z" fill="#1A2E35"/>
<path d="M246.693 415.945C246.826 412.882 244.924 390.309 244.924 390.309L260.363 391.745C256.713 409.739 256.417 415.87 256.833 418.487C256.86 418.556 256.933 418.805 256.929 419.241C256.915 422.737 252.139 424.622 248.411 426.952C246.941 427.873 243.157 430.71 238.725 431.957C235.856 432.763 230.553 433.069 229.872 431.63C234.407 428.771 240.578 425.034 244.183 421.768C245.905 420.209 246.56 419.01 246.693 415.945Z" fill="#FFBEA7"/>
<path d="M296.963 288.247C305.386 303.44 296.66 356.958 296.66 356.958C296.913 359.423 300.327 364.274 301.597 375.125C303.1 387.946 298.825 422.269 298.825 422.269C298.825 422.269 294.724 424.802 288.774 422.447C288.774 422.447 277.909 372.015 275.961 359.267C274.263 348.142 271.001 323.68 271.001 323.68L261.733 359.207C261.733 359.207 264.111 365.44 264.669 370.187C265.548 377.686 256.708 415.317 256.708 415.317C256.708 415.317 252.572 417.12 246.694 415.156C246.694 415.156 242.776 366.539 241.958 357.505C240.58 342.336 245.458 295.003 248.826 286.024L296.963 288.247Z" fill="#3CB9FF" fill-opacity="0.91"/>
<g opacity="0.199997">
<path opacity="0.199997" d="M271.002 323.681L268.267 309.571C268.267 309.571 256.699 307.591 251.454 303.518C251.454 303.518 256.958 309.172 265.132 311.024L268.203 321.888L262.835 354.784L271.002 323.681Z" fill="black"/>
</g>
<path d="M292.644 241.055L281.185 243.519V223.518C287.513 222.156 292.644 225.171 292.644 230.25V241.055Z" fill="#1A2E35"/>
<path d="M269.98 226.361L274.092 226.283C286.622 226.045 296.555 217.116 296.279 206.338C296.35 194.592 285.27 185.022 271.616 184.96C257.96 184.899 246.832 194.372 246.761 206.118L246.797 207.331C247.109 218.087 257.478 226.598 269.98 226.361Z" fill="#1A2E35"/>
<path d="M289.167 189.88C289.629 188.408 291.403 187.586 293.131 188.04L292.034 191.533C292.267 191.302 292.536 191.094 292.859 190.938C294.4 190.188 296.329 190.696 297.166 192.073L291.585 194.789C291.293 194.309 291.181 193.786 291.214 193.277C289.64 192.744 288.727 191.278 289.167 189.88Z" fill="#1A2E35"/>
<path d="M282.399 231.64C282.399 231.64 290.685 232.609 293.859 233.458C289.423 242.444 296.381 256.323 296.381 256.323L289.818 273.016C294.345 280.688 298.09 284.495 299.624 290.729C295.45 297.467 265.959 303.898 246.762 291.616C246.762 291.616 247.381 274.56 249.828 264.622C243.54 254.492 244.565 251.52 245.849 247.988C248.835 239.774 254.872 236.612 262.07 230.824L266.41 230.447L282.399 231.64Z" fill="#2B454E"/>
<path d="M289.056 279.708C285.499 276.689 277.944 275.83 277.944 275.83L284.872 272.564L292.644 257.086C287.252 248.525 287.974 240.052 287.974 240.052L292.428 239.169C291.889 247.355 296.382 256.323 296.382 256.323L289.817 273.017C294.344 280.689 298.089 284.495 299.624 290.729C296.768 295.342 282.046 299.807 266.884 298.227C287.2 297.107 292.486 282.619 289.056 279.708Z" fill="#1A2E35"/>
<path d="M268.535 298.376C268.259 298.355 267.982 298.327 267.706 298.303C267.934 298.307 268.203 298.328 268.535 298.376Z" fill="#E7E7E7"/>
<path d="M255.981 195.447C253.517 197.316 250.439 201.37 250.687 213.217C250.894 223.258 254.663 225.755 256.557 226.478C258.453 227.201 262.119 226.783 265.683 226.288L265.728 230.446C265.728 230.446 261.026 234.751 261.319 237.516C261.612 240.281 268.005 241.427 272.628 238.749C277.25 236.07 281.185 231.599 281.185 231.599L281.233 218.967C281.233 218.967 283.318 220.728 286.889 218.071C289.837 215.878 290.847 212.161 288.573 210.153C286.298 208.146 282.069 208.671 280.432 211.511C280.432 211.511 272.304 210.95 264.807 207.712C258.161 204.842 255.501 199.657 255.981 195.447Z" fill="#FFBEA7"/>
<path d="M265.686 210.916C265.639 211.64 266.257 212.255 267.067 212.293C267.876 212.33 268.571 211.773 268.617 211.049C268.663 210.326 268.044 209.71 267.236 209.673C266.426 209.637 265.732 210.193 265.686 210.916Z" fill="#1A2E35"/>
<path d="M265.138 219.331L261.32 220.36C261.63 221.3 262.737 221.832 263.792 221.547C264.846 221.263 265.449 220.27 265.138 219.331Z" fill="#FF9875"/>
<path d="M251.933 206.385L255.398 205.408C255.138 204.58 254.151 204.127 253.193 204.396C252.238 204.667 251.672 205.557 251.933 206.385Z" fill="#1A2E35"/>
<path d="M280.412 210.318L280.451 214.566C279.077 214.62 277.956 213.712 277.944 212.539C277.934 211.367 279.039 210.371 280.412 210.318Z" fill="#1A2E35"/>
<path d="M253.132 210.502C253.084 211.225 253.703 211.841 254.512 211.877C255.322 211.914 256.016 211.358 256.062 210.634C256.109 209.911 255.49 209.295 254.681 209.258C253.873 209.222 253.177 209.778 253.132 210.502Z" fill="#1A2E35"/>
<path d="M261.282 208.781L261.319 217.009L256.678 215.749L261.282 208.781Z" fill="#FF9875"/>
<path d="M265.684 226.288C269.438 225.882 277.172 224.009 278.391 221.388C278.391 221.388 277.98 223.036 275.665 224.727C273.346 226.416 265.705 228.314 265.705 228.314L265.684 226.288Z" fill="#FF9875"/>
<path d="M311.465 273.677C311.465 273.677 302.283 284.45 300.703 285.86C299.122 287.268 298.049 286.799 296.344 286.173C294.637 285.545 291.396 284.744 289.961 284.45C287.153 283.875 286.548 286.016 289.328 287.542C291.34 288.646 293.641 289.128 292.678 290.035C291.715 290.94 288.743 292.527 285.979 293.426C279.202 295.634 279.726 296.742 280.974 298.555C282.061 300.134 285.228 303.538 297.349 299.517C302.35 297.859 309.394 293.145 312.715 290.105C317.508 285.719 324.984 277.86 324.984 277.86L311.465 273.677Z" fill="#FFBEA7"/>
<path d="M292.091 233.072C295.416 233.255 301.665 233.917 309.506 244.668C316.382 254.099 327.04 266.898 329.022 271.474C329.821 273.319 326.697 277.166 322.684 281.1C317.195 280.901 312.203 277.769 309.612 275.265C310.814 272.968 312.144 271.467 312.144 271.467L296.056 256.317C296.056 256.317 289.948 251.695 288.667 245.644C287.297 239.164 287.724 234.03 292.091 233.072Z" fill="#375A64"/>
<path d="M202.05 253.466L241.702 262.092L252.618 299.148L214.917 290.104L202.05 253.466Z" fill="#2B454E"/>
<g opacity="0.100006">
<path opacity="0.100006" d="M219.966 279.708C219.598 280.539 217.169 283.548 212.551 283.368L212.264 282.549L219.966 279.708Z" fill="black"/>
</g>
<g opacity="0.100006">
<path opacity="0.100006" d="M213.994 259.352C213.994 259.352 213.848 258.793 213.666 258.103C213.487 257.413 215.812 257.383 218.864 258.037L224.706 259.288C227.758 259.942 230.378 261.031 230.558 261.72L230.886 262.971L213.994 259.352Z" fill="black"/>
</g>
<path d="M210.949 254.657C210.833 254.226 211.776 254.113 213.055 254.405L215.369 254.932C215.369 254.932 214.678 252.231 219.812 253.175C224.945 254.119 226.067 257.187 226.067 257.187C226.067 257.187 227.175 257.446 228.538 257.766C229.902 258.086 231.138 258.694 231.3 259.123L231.592 259.9L211.165 255.458C211.165 255.458 211.064 255.088 210.949 254.657Z" fill="#F5F5F5"/>
<path d="M213.762 255.99C215.635 256.363 216.412 256.567 216.691 257.631C217.011 258.846 217.14 259.737 217.14 259.737L226.181 261.71C226.181 261.71 225.744 260.173 225.605 259.574C225.465 258.974 225.774 258.613 227.21 258.927L227.333 258.451L213.168 255.473L213.762 255.99Z" fill="#2B454E"/>
<path d="M213.45 259.47C213.45 259.47 213.304 258.911 213.122 258.221C212.943 257.531 215.269 257.501 218.321 258.155L224.163 259.406C227.215 260.06 229.834 261.15 230.015 261.839L230.342 263.089L213.45 259.47Z" fill="#2B454E"/>
<path d="M206.228 265.364C206.228 265.364 207.71 269.553 208.049 270.551C208.39 271.55 212.831 273.345 215.745 274.006C218.661 274.668 221.849 275.452 220.47 278.818C219.198 281.921 214.402 282.63 211.959 282.543C209.518 282.454 206.175 280.527 204.858 277.42C203.177 273.456 204.083 269.222 203.416 266.907C202.748 264.592 204.767 263.983 206.228 265.364Z" fill="#FFBEA7"/>
<path d="M356.418 266.348C361.857 261.822 363.8 263.582 364.488 268.545C364.995 272.207 366.302 274.611 366.302 274.611C366.687 273.077 366.85 272.377 367.325 271.616C368.27 270.105 369.868 270.068 370.551 270.305C371.083 270.488 370.426 271.54 370.509 273.461C370.616 275.924 371.579 277.284 370.882 279.898C370.621 280.878 370.84 281.899 371.416 282.782C374.351 287.265 383.713 295.569 390.31 301.541C396.141 297.19 409.187 287.454 415.431 282.808C423.999 276.432 426.793 273.557 435.079 274.025C435.079 274.025 431.87 274.832 428.029 277.515C424.191 280.196 425.103 295.549 425.103 295.549C425.103 295.549 396.6 312.433 393.668 314.038C393.238 314.274 392.798 314.487 392.362 314.68C389.5 315.938 385.956 315.34 383.821 313.325C377.735 307.58 368.871 296.275 363.741 290.398C361.336 287.642 359.011 283.877 357.544 281.486C352.453 273.187 353.012 269.184 356.418 266.348Z" fill="#A54E4D"/>
<path d="M434.236 273.605C434.236 273.605 428.461 272.358 422.77 275.924C417.878 278.991 397.069 294.796 397.069 294.796C397.069 294.796 396.503 303.169 407.079 308.167L432.66 293.266L434.236 273.605Z" fill="#07A6FF"/>
<path d="M469.741 478.627H458.908V462.673H469.741V478.627Z" fill="#A54E4D"/>
<path d="M432.179 461.821L421.352 462.142L420.809 445.258L432.179 444.938V461.821Z" fill="#A54E4D"/>
<path d="M471.265 324.543C471.265 333.442 469.679 405.063 469.679 405.063C469.932 407.623 472.723 412.345 472.118 422.18C471.297 435.54 470.204 470.65 470.204 470.65C470.204 470.65 464.945 473.294 458.142 470.855C458.142 470.855 447.894 422.226 445.953 408.986C444.259 397.431 441.384 358.526 441.384 358.526L435.512 403.763C435.512 403.763 437.509 410.655 436.854 418.572C436.348 424.697 432.864 456.592 432.864 456.592C432.864 456.592 427.764 459.568 420.355 457.416C420.355 457.416 414.193 409.381 414.067 403.763C413.924 397.355 417.67 324.448 417.67 324.448L471.265 324.543Z" fill="#2B454E"/>
<path d="M458.907 474.027V472.694C457.87 473.083 455.462 480.988 451.164 484.36C447.745 487.042 443.084 490.138 441.899 493.128C440.666 496.236 448.391 497.953 451.583 497.466C455.293 496.901 461.722 494.655 463.336 492.571C464.951 490.489 465.705 487.416 467.017 485.89C468.329 484.363 471.353 482.659 472.061 480.892C472.451 479.92 471.989 477.794 471.441 475.999C470.939 474.351 470.394 472.539 469.74 472.694C469.739 472.895 469.74 473.71 469.74 473.71C468.953 474.46 466.778 475.204 464.324 475.284C462.739 475.338 458.894 475.067 458.907 474.027Z" fill="#1A2E35"/>
<path d="M421.236 459.268C420.673 459.284 420.216 459.967 418.974 461.123C417.475 462.519 415.022 464.024 412.601 465.068C408.545 466.814 400.658 469.502 397.09 470.884C394.859 471.749 394.964 474.066 397.269 475.384C399.574 476.702 405.14 477.653 411.82 476.368C415.462 475.667 420.199 472.775 423.199 472.931C426.198 473.087 431.812 473.049 434.025 471.736C436.238 470.425 435.353 467.62 434.728 465.212C434.045 462.582 433.189 458.482 432.178 458.661V459.568C430.876 461.265 424.155 461.955 421.294 460.706L421.236 459.268Z" fill="#1A2E35"/>
<path d="M441.385 358.526C441.385 358.526 432.725 356.427 426.298 351.084C426.298 351.084 429.21 355.773 437.866 360.136L436.015 400.534L441.385 358.526Z" fill="#1A2E35"/>
<path d="M465.63 276.001C465.63 276.001 474.107 276.642 473.505 289.981L471.632 311.23L471.808 343.118C463.841 350.574 428.523 350.028 416.432 342.521C416.432 342.521 417.677 304.784 418.494 290.262C419.075 279.94 421.951 274.742 434.236 273.606L449.343 274.154L465.63 276.001Z" fill="#07A6FF"/>
<g opacity="0.300003">
<path opacity="0.300003" d="M441.556 282.998L439.612 294.2L435.08 294.13L440.191 294.796L441.556 282.998Z" fill="black"/>
</g>
<path d="M492.518 321.807C488.123 292.621 478.014 278.113 465.689 276.408L466.562 295.082C466.562 295.082 474.841 310.672 478.293 325.979C479.913 333.164 481.79 345.655 481.304 351.796C481.218 352.883 480.634 353.896 479.73 354.659C477.3 356.706 476.563 358.476 474.931 360.786C473.653 362.595 472.335 363.235 472.674 363.669C473.112 364.228 474.549 364.992 476.447 364.074C477.402 363.612 478.548 362.673 479.966 361.454C479.966 361.454 480.325 365.958 478.197 369.58C475.314 374.49 475.793 377.079 483.779 375.633C488.782 374.727 492.391 370.368 493.73 360.19C494.117 357.258 494.165 352.517 493.978 348.781C493.493 339.052 493.398 327.648 492.518 321.807Z" fill="#A54E4D"/>
<path d="M464.985 275.925C471.387 275.905 477.225 276.834 481.868 284.22C486.32 291.304 489.744 306.309 491.474 311.207C491.474 311.207 482.128 315.769 473.536 315.659L467.478 298.305C467.478 298.305 463.391 290.204 464.985 275.925Z" fill="#07A6FF"/>
<path d="M451.787 245.88C451.787 253.542 444.565 259.755 435.658 259.755C426.75 259.755 419.53 253.542 419.53 245.88C419.53 238.217 426.75 232.005 435.658 232.005C444.565 232.005 451.787 238.217 451.787 245.88Z" fill="#1A2E35"/>
<path d="M462.047 252.821C462.047 252.821 459.573 262.818 458.581 264.461C457.588 266.105 455.54 266.57 455.54 266.57L455.713 259.538L462.047 252.821Z" fill="#1A2E35"/>
<path d="M458.943 238.498C458.943 238.498 460.717 238.131 462.601 240.563C464.217 242.647 464.583 247.329 462.047 252.821L457.387 253.281L458.943 238.498Z" fill="#1A2E35"/>
<path d="M455.99 253.285C456.924 253.765 458.256 252.22 459.41 251.184C460.561 250.146 464.323 248.729 466.2 252.13C468.112 255.596 464.543 260.177 461.582 260.976C456.478 262.355 455.712 259.539 455.712 259.539L455.323 275.374C448.547 284.031 433.2 283.717 438.718 274.956L438.733 270.136C438.733 270.136 434.108 270.739 431.852 270.44C428.099 269.941 425.738 267.393 424.599 263.898C422.771 258.285 422.077 253.753 423.628 242.713C425.329 230.612 441.689 230.486 450.524 235.27C459.358 240.054 455.99 253.285 455.99 253.285Z" fill="#A54E4D"/>
<path d="M455.41 271.824C455.41 271.824 453.026 276.08 448.773 278.691C444.864 281.09 440.745 281.509 440.745 281.509C440.745 281.509 444.72 283.684 446.41 286.762C448.1 289.841 460.021 281.365 459.914 275.352C459.914 275.352 458.042 269.313 455.481 268.925L455.41 271.824Z" fill="#1A2E35"/>
<path d="M440.745 281.509C440.745 281.509 437.07 280 438.718 274.955L438.732 270.135L437.121 270.313C435.868 271.245 433.893 273.441 433.248 275.855C432.879 277.235 431.973 284.228 433.588 285.617C435.058 286.881 437.452 281.885 440.745 281.509Z" fill="#1A2E35"/>
<path d="M455.989 254.636C456.46 254.644 458.247 252.093 459.409 251.183C461.021 249.921 458.942 238.498 458.942 238.498C458.942 238.498 460.49 235.658 457.387 232.719C455.179 230.63 451.489 230.397 445.189 229.546C442.735 229.214 440.114 228.993 437.722 228.434C435.159 227.834 432.639 226.431 430.254 225.431C429.464 225.1 428.581 224.761 427.727 224.952C426.906 225.134 426.334 225.781 426.12 226.461C425.909 227.14 425.99 227.856 426.073 228.555C424.614 227.224 421.762 227.419 420.271 228.726C418.782 230.033 418.576 232.104 419.366 233.776C420.157 235.448 421.791 236.763 423.592 237.769C431.51 242.183 440.855 240.957 449.718 240.09C450.143 240.049 450.592 240.013 450.981 240.16C452.367 240.68 452.665 244.24 452.908 245.268C453.73 248.734 454.409 254.61 455.989 254.636Z" fill="#1A2E35"/>
<path d="M458.933 239.101L464.582 236.491C463.781 235.099 461.866 234.554 460.305 235.275C458.746 235.996 458.13 237.708 458.933 239.101Z" fill="#1A2E35"/>
<path d="M438.732 270.136C438.732 270.136 447.111 268.683 450.04 267.344C452 266.447 453.614 264.893 454.089 263.898C454.089 263.898 453.539 266.036 451.788 267.964C449.646 270.319 438.732 272.054 438.732 272.054V270.136Z" fill="#8A3433"/>
<path d="M441.763 251.071C441.763 251.899 442.515 252.569 443.442 252.567C444.369 252.566 445.122 251.891 445.122 251.062C445.122 250.234 444.369 249.564 443.442 249.566C442.515 249.569 441.763 250.242 441.763 251.071Z" fill="#1A2E35"/>
<path d="M444.646 245.068L448.237 246.773C448.767 245.885 448.392 244.784 447.4 244.314C446.409 243.842 445.175 244.18 444.646 245.068Z" fill="#1A2E35"/>
<path d="M439.491 261.459L435.657 262.697C436.037 263.642 437.203 264.131 438.262 263.79C439.32 263.448 439.87 262.405 439.491 261.459Z" fill="#8A3433"/>
<path d="M424.991 246.723L428.765 245.204C428.329 244.295 427.131 243.898 426.09 244.318C425.047 244.737 424.554 245.814 424.991 246.723Z" fill="#1A2E35"/>
<path d="M427.48 251.071C427.48 251.899 428.231 252.57 429.159 252.567C430.086 252.566 430.838 251.892 430.838 251.062C430.838 250.234 430.086 249.564 429.159 249.566C428.231 249.569 427.48 250.242 427.48 251.071Z" fill="#1A2E35"/>
<path d="M436.992 249.998L436.798 258.756L430.778 257.615L436.992 249.998Z" fill="#8A3433"/>
<path d="M449.313 250.914C449.313 248.617 447.092 246.749 444.362 246.749H443.597C440.868 246.749 438.646 248.617 438.646 250.914C438.646 253.212 440.868 255.08 443.597 255.08H444.362C447.092 255.08 449.313 253.212 449.313 250.914ZM444.362 247.451C446.632 247.451 448.479 249.005 448.479 250.914C448.479 252.824 446.632 254.378 444.362 254.378H443.597C441.328 254.378 439.482 252.824 439.482 250.914C439.482 249.005 441.328 247.451 443.597 247.451H444.362Z" fill="#1A2E35"/>
<path d="M434.217 250.914C434.217 248.617 431.997 246.749 429.267 246.749H428.501C425.773 246.749 423.552 248.617 423.552 250.914C423.552 253.212 425.773 255.08 428.501 255.08H429.267C431.997 255.08 434.217 253.212 434.217 250.914ZM429.267 247.451C431.536 247.451 433.383 249.005 433.383 250.914C433.383 252.824 431.536 254.378 429.267 254.378H428.501C426.233 254.378 424.386 252.824 424.386 250.914C424.386 249.005 426.233 247.451 428.501 247.451H429.267Z" fill="#1A2E35"/>
<path d="M438.708 250.092C438.25 249.46 437.223 249.019 436.093 248.97C435.118 248.929 434.26 249.2 433.81 249.696L433.145 249.271C433.769 248.579 434.858 248.214 436.135 248.27C437.555 248.33 438.814 248.888 439.421 249.725L438.708 250.092Z" fill="#1A2E35"/>
<path d="M457.388 250.761H448.854V250.059H457.388V250.761Z" fill="#1A2E35"/>
</svg>
