<svg  viewBox="0 0 512 426" fill="none" xmlns="http://www.w3.org/2000/svg">
<path d="M461.814 374.71L460.652 371.92H460.419L452.982 377.965L453.912 380.29L457.63 377.5L461.814 374.71Z" fill="#FFB1A5"/>
<path d="M455.672 402.887C430.184 383.52 386.591 335.467 443.998 260.033C514.988 166.748 429.97 128.477 348.479 132.471C282.918 135.685 209.135 53.2631 135.532 67.9942C37.8391 87.5478 101.272 171.675 35.0329 217C-21.4575 255.655 2.79598 373.434 76.3177 402.887H455.672Z" fill="#F1F1F1"/>
<path d="M501.677 231.82C501.283 217.987 488.398 212.622 479.797 222.636C474.862 228.381 470.159 236.621 469.278 247.642C467.309 272.305 488.887 265.159 496.949 251.954C500.388 246.322 501.877 238.812 501.677 231.82" fill="#CFE6F4"/>
<path d="M264.245 63.1104C250.648 60.5382 242.651 71.9792 250.595 82.5227C255.152 88.5713 262.198 94.9272 272.775 98.1434C296.447 105.34 294.079 82.7336 282.902 72.0341C278.136 67.4708 271.118 64.4117 264.245 63.1104" fill="#CFE6F4"/>
<path d="M39.5122 189.853C44.9528 177.127 35.5023 166.855 23.4958 172.343C16.6078 175.49 8.88342 181.001 3.46515 190.638C-8.65963 212.205 13.9261 214.759 26.7805 206.15C32.2641 202.478 36.7625 196.284 39.5122 189.853" fill="#CFE6F4"/>
<path d="M489.247 410.656C489.247 419.13 384.902 426 256.188 426C127.472 426 23.1274 419.13 23.1274 410.656C23.1274 402.185 127.472 395.315 256.188 395.315C384.902 395.315 489.247 402.185 489.247 410.656Z" fill="#F1F1F1"/>
<path d="M482.966 280.785C468.697 295.05 484.614 296.259 474.143 307.033C464.6 316.852 450.518 307.294 451.455 331.275C451.66 336.522 447.842 340.414 442.486 342.408C433.672 345.688 425.049 342.655 419.74 336.625C419.307 336.139 418.897 335.63 418.512 335.102C414.483 329.602 413.012 322.147 415.998 314.759C418.421 308.766 422.712 302.869 430.318 300.517C448.158 295.003 438.255 271.374 453.335 270.337C471.52 269.085 472.173 262.415 485.079 253.423C498.76 243.892 502.306 261.456 482.966 280.785" fill="#375A64"/>
<path d="M476.568 272.993C476.17 273.403 443.084 307.516 419.739 336.625C419.306 336.139 418.897 335.63 418.512 335.102C441.92 305.976 474.799 272.073 475.2 271.661C475.569 271.284 476.172 271.275 476.55 271.643C476.928 272.01 476.936 272.614 476.568 272.993Z" fill="#1C1C1C"/>
<path d="M486.63 328.405C464.274 341.565 483.697 348.196 467.196 358.234C452.154 367.383 437.703 350.952 431.146 381.106C429.712 387.701 423.705 391.317 416.398 392.074C404.37 393.318 394.614 386.766 389.944 377.551C389.564 376.807 389.217 376.041 388.909 375.26C385.662 367.115 386.233 357.364 392.329 349.128C397.276 342.447 404.517 336.488 414.74 336.013C438.723 334.894 434.006 302.291 453.111 305.856C476.151 310.155 479.11 302.062 498.072 295.026C518.172 287.564 516.928 310.571 486.63 328.405Z" fill="#375A64"/>
<path d="M481.177 316.644C480.547 317.027 428.377 348.835 389.944 377.551C389.564 376.807 389.217 376.041 388.909 375.26C427.426 346.543 479.27 314.929 479.901 314.546C480.481 314.193 481.235 314.379 481.588 314.957C481.939 315.537 481.754 316.292 481.177 316.644" fill="#242527"/>
<path d="M50.6316 117.83C58.3021 136.491 43.149 131.474 48.6584 145.449C53.6815 158.187 70.3589 154.795 60.2526 176.564C58.0419 181.326 60.065 186.389 64.2392 190.292C71.1083 196.714 80.2337 197.238 87.4572 193.722C88.0438 193.44 88.6181 193.128 89.1768 192.788C95.0145 189.267 99.2436 182.955 99.3355 174.987C99.4096 168.522 97.7224 161.426 91.611 156.326C77.2723 144.362 95.517 126.375 82.0009 119.607C65.7024 111.443 67.6703 105.038 59.2254 91.766C50.2744 77.6978 40.235 92.54 50.6316 117.83Z" fill="#375A64"/>
<path d="M59.5385 113.103C59.7481 113.636 77.1333 157.865 87.4575 193.721C88.0441 193.44 88.6184 193.128 89.1771 192.788C78.8006 156.891 61.5253 112.936 61.3142 112.402C61.1204 111.911 60.5662 111.671 60.0754 111.865C59.5851 112.058 59.3453 112.613 59.5385 113.103" fill="#1C1C1C"/>
<path d="M28.7882 166.576C44.9658 186.855 24.4558 186.108 36.2808 201.38C47.0599 215.299 66.4293 205.116 61.7775 235.622C60.76 242.296 65.0775 247.819 71.6338 251.138C82.4221 256.597 93.876 253.963 101.53 247.026C102.151 246.466 102.748 245.874 103.316 245.254C109.258 238.808 112.209 229.497 109.457 219.628C107.225 211.619 102.591 203.466 93.2141 199.368C71.2136 189.754 87.2693 160.989 68.1519 157.493C45.0968 153.274 45.2244 144.658 30.0292 131.31C13.9221 117.16 6.86326 139.092 28.7882 166.576" fill="#375A64"/>
<path d="M38.0847 157.54C38.5352 158.122 75.8955 206.472 101.53 247.026C102.152 246.466 102.748 245.874 103.316 245.255C77.6031 204.671 40.4773 156.618 40.025 156.036C39.6096 155.499 38.8388 155.402 38.303 155.817C37.767 156.233 37.6702 157.004 38.0847 157.54Z" fill="#242527"/>
<path d="M137.901 148.921C144.418 144.459 160.74 155.467 169.275 168.833L161.704 147.622C158.964 145.245 154.166 141.91 146.669 139.253C135.009 135.121 123.324 128.647 129.854 124.177C135.972 119.986 150.731 129.434 159.577 141.666L149.854 114.427C148.045 113.036 145.293 111.345 141.357 109.952C134.011 107.347 126.645 103.267 130.761 100.449C134.332 98.0051 142.572 102.929 148.2 109.793L145.048 100.964C143.607 98.3988 141.557 94.734 138.326 91.3911C130.841 83.6464 125.181 74.9347 130.954 73.6716C136.732 72.4085 146.19 87.5849 147.677 101.296L149.3 105.84C148.04 95.867 151.626 83.7911 156.626 83.3648C161.595 82.9397 158.479 90.7595 154.441 97.4285C151.367 102.504 150.518 106.533 150.291 108.617L157.951 130.074C156.002 114.275 161.681 95.2219 169.592 94.5455C177.476 93.8713 172.531 106.28 166.125 116.862C161.283 124.858 159.919 131.218 159.547 134.546L168.732 160.277C167.103 144.664 172.687 125.716 180.477 125.654C186.482 125.607 184.643 134.086 177.471 146.055C172.596 154.189 171.037 161.493 170.539 165.341L174.866 177.46C174.141 177.973 173.387 178.241 172.638 178.254L170.917 173.432C168.485 171.08 163.419 167.083 154.717 163.998C143.058 159.865 131.372 153.393 137.901 148.921" fill="#375A64"/>
<path d="M80.5579 328.682C73.8725 332.889 77.4854 352.24 86.357 365.385L69.9038 350.006C68.8122 346.547 67.6593 340.82 68.2014 332.884C69.0445 320.543 67.7501 307.247 61.0523 311.46C54.7752 315.409 57.5756 332.708 65.283 345.688L44.1547 325.937C43.5969 323.725 43.1408 320.527 43.4251 316.363C43.9562 308.584 43.1408 300.206 38.9201 302.861C35.2564 305.166 36.4991 314.686 40.5598 322.577L33.7122 316.175C31.9314 313.834 29.3832 310.496 27.6003 306.202C23.4689 296.255 17.7251 287.598 14.2713 292.394C10.8149 297.194 20.9819 311.905 32.972 318.722L36.4955 322.015C27.8443 316.895 15.3397 315.384 12.9598 319.803C10.5945 324.194 19.0099 324.443 26.734 323.389C32.6136 322.586 36.6467 323.408 38.6498 324.029L55.294 339.587C41.5715 331.518 21.831 329.154 18.0652 336.146C14.312 343.112 27.6651 343.507 39.921 341.835C49.183 340.572 55.5608 341.848 58.7622 342.83L78.7215 361.486C65.0434 353.785 45.4365 351.378 42.2836 358.501C39.8534 363.991 48.364 365.675 62.1977 363.852C71.5996 362.613 78.9214 364.086 82.6495 365.157L92.0508 373.945C92.8091 373.484 93.3543 372.899 93.665 372.218L89.9239 368.72C88.7326 365.555 87.0782 359.318 87.7073 350.104C88.5498 337.764 87.2557 324.469 80.5579 328.682Z" fill="#375A64"/>
<path d="M417.968 155.272V401.756H61.1396V155.272H417.968" fill="#3E80FF"/>
<path d="M417.957 155.281V171.082L239.555 329.207L61.1401 171.082V155.281L239.543 313.948L417.957 155.281Z" fill="#F3FFFF"/>
<path d="M205.178 282.832L71.4744 401.756H61.1396V395.473L197.492 274.195L205.178 282.832Z" fill="#F3FFFF"/>
<path d="M417.968 396.308V401.756H406.698L272.995 282.832L280.68 274.195L417.968 396.308" fill="#F3FFFF"/>
<path d="M61.1289 155.27L239.544 313.948L417.958 155.27H61.1289Z" fill="#3E80FF"/>
<path d="M319.523 133.072L324.076 142.814L314.451 142.963L310.737 134.098L319.523 133.072" fill="#F49477"/>
<path d="M321.046 142.205C321.046 142.205 323.021 139.549 324.593 139.663C326.162 139.777 338.274 149.406 342.424 150.201C346.573 150.997 346.189 155.223 344.452 155.223C339.451 155.223 311.852 155.271 311.852 155.271C311.852 155.271 311.019 145.398 312.075 142.453C313.131 139.51 317.801 142.902 321.046 142.205" fill="#3F77C4"/>
<path d="M327.74 148.925C327.593 148.968 327.429 148.955 327.285 148.873C327.007 148.714 326.909 148.359 327.069 148.08C327.121 147.987 328.388 145.786 330.094 144.927C332.362 143.78 334.134 145.064 334.208 145.119C334.465 145.309 334.518 145.674 334.327 145.932C334.136 146.189 333.771 146.244 333.514 146.051C333.466 146.017 332.233 145.152 330.618 145.964C329.228 146.665 328.09 148.636 328.078 148.657C328.001 148.791 327.878 148.883 327.74 148.925Z" fill="white"/>
<path d="M326.008 147.288C325.862 147.332 325.697 147.318 325.553 147.236C325.274 147.077 325.176 146.723 325.336 146.443C325.39 146.35 326.657 144.149 328.362 143.289C330.633 142.142 332.401 143.426 332.475 143.481C332.734 143.673 332.787 144.036 332.595 144.294C332.404 144.552 332.039 144.606 331.781 144.414C331.733 144.379 330.5 143.514 328.885 144.328C327.49 145.031 326.358 146.999 326.346 147.019C326.269 147.153 326.146 147.246 326.008 147.288" fill="white"/>
<path d="M330.089 150.253C329.942 150.297 329.778 150.283 329.634 150.201C329.356 150.042 329.259 149.687 329.416 149.409C329.469 149.315 330.737 147.114 332.443 146.255C334.714 145.107 336.482 146.391 336.557 146.447C336.814 146.637 336.867 147.002 336.676 147.259C336.485 147.517 336.12 147.571 335.863 147.379C335.815 147.345 334.581 146.479 332.967 147.292C331.569 147.996 330.439 149.965 330.427 149.984C330.35 150.119 330.227 150.211 330.089 150.253Z" fill="white"/>
<path d="M322.265 136.247L318.002 137.638L315.63 137.778L311.557 138.017C306.174 133.759 291.651 120.947 288.822 113.393C288.822 113.393 270.138 156.842 244.306 156.842C242.63 156.842 247.059 135.222 251.27 130.726C251.27 130.726 275.081 86.3497 290.517 91.0588C297.43 93.17 304.422 103.232 322.265 136.247" fill="#343054"/>
<path d="M318.001 137.638L315.63 137.779C299.784 125.78 292.444 115.619 289.064 109.111C288.947 108.885 288.758 108.811 288.63 108.815C288.519 108.817 288.439 108.878 288.388 109.008C280.8 126.869 271.694 137.589 265.39 143.44C258.522 149.814 253.496 151.915 253.289 152.004L252.997 151.295L252.708 150.588C252.756 150.567 257.742 148.471 264.424 142.25C270.596 136.507 279.521 125.973 286.981 108.407C287.265 107.732 287.863 107.313 288.572 107.286C289.336 107.254 290.052 107.695 290.423 108.405C293.829 114.969 301.377 125.339 318.001 137.638" fill="#1E1D33"/>
<path d="M307.284 135.112C307.962 136.38 309.127 138.171 310.241 139.037C310.241 139.037 319.366 138.615 323.803 136.386L321.811 131.748C321.811 131.748 314.549 134.399 307.284 135.112" fill="#4C4685"/>
<path d="M319.227 72.8246C306.251 78.1093 295.88 80.7667 287.055 81.8605L287.037 81.8571C286.924 81.8605 284.847 82.0298 284.048 81.9973C281.671 81.9154 278.451 81.377 275.192 79.8536C272.868 78.7688 269.55 75.9656 266.079 72.6238C261.781 68.4766 257.249 63.5004 254.113 59.9455C251.675 57.1837 250.08 55.279 250.08 55.279C252.243 52.0595 257.036 49.1316 261.206 47.5645C261.206 47.5645 269.909 62.0567 283.094 69.1732C283.811 69.5647 284.545 69.9259 285.288 70.2613C288.292 69.7745 296.419 69.4043 299.943 69.153C309.495 68.4743 317.294 66.8175 317.294 66.8175L319.227 72.8246Z" fill="#007EC6"/>
<path d="M316.965 66.3398C316.965 66.3398 318.771 61.7754 321.23 60.473C323.687 59.1706 330.683 54.5848 332.176 55.9567C333.671 57.3298 333.361 63.9191 327.089 69.427C323.094 72.9359 319.07 72.7867 319.07 72.7867L316.965 66.3398" fill="#F49477"/>
<path d="M332.624 60.1497L322.298 69.7958C321.91 70.1603 321.209 70.2658 320.73 70.0336L314.402 66.9734C314.206 66.8769 314.077 66.7401 314.022 66.5853L314.007 66.5348L313.696 65.4769L315.374 64.8398L331.621 58.6689L332.502 58.3368L332.831 59.4553L332.857 59.5315L332.861 59.5596C332.898 59.7559 332.819 59.9691 332.624 60.1497Z" fill="#1E1D33"/>
<path d="M331.621 58.669L315.374 64.8398L324.563 56.2549C324.95 55.8926 325.652 55.7849 326.128 56.016L331.621 58.669" fill="#252334"/>
<path d="M320.415 68.9613L314.083 65.9C313.606 65.6689 313.532 65.1888 313.92 64.8276L324.246 55.1793C324.634 54.8181 325.334 54.7126 325.812 54.9437L332.144 58.005C332.62 58.2361 332.693 58.7151 332.307 59.0774L321.98 68.7246C321.593 69.0859 320.892 69.1913 320.415 68.9613" fill="#343054"/>
<path d="M321.757 67.354C321.554 67.354 321.354 67.3147 321.184 67.2329L316.278 64.8603C315.801 64.6292 315.728 64.1502 316.115 63.7879L324.145 56.2855C324.395 56.0533 324.773 55.9265 325.137 55.9265C325.34 55.9265 325.54 55.9658 325.711 56.0488L330.616 58.4202C331.094 58.6513 331.167 59.1314 330.779 59.4926L322.748 66.9962C322.5 67.2284 322.122 67.354 321.757 67.354Z" fill="#4E4E8A"/>
<path d="M332.865 59.5573L332.861 59.5596L332.857 59.5314L332.865 59.5573Z" fill="#252334"/>
<path d="M321.053 58.1646C321.053 58.1646 322.523 58.3934 322.674 59.6588C322.824 60.923 321.455 60.4193 320.576 60.1422C319.694 59.864 318.902 60.1422 318.782 60.2858C318.397 60.739 318.464 57.7899 321.053 58.1646" fill="#F49477"/>
<path d="M327.629 65.0315C327.629 65.0315 329.936 61.2377 331.706 59.1658C332.884 57.786 333.485 59.7883 332.68 61.1849C331.872 62.5804 330.282 65.4241 327.629 65.0315Z" fill="#F49477"/>
<path d="M220.091 133.422L214.976 100.445L214.673 98.4897L214.708 97.018L215.848 50.3006L228.809 45.9201L229.504 45.6845L232.414 44.6985L234.721 43.92L248.406 45.8035L250.634 46.1097L251.418 46.2174L261.208 47.5646C261.299 78.5356 258.327 85.2259 264.049 110.419C266.931 119.921 256.361 153.574 220.091 133.422" fill="#007EC6"/>
<path d="M227.378 124.985L227.38 124.984C237.628 122.122 245.104 115.049 249.571 109.62C254.403 103.747 256.858 98.4672 256.883 98.4145C257.001 98.1576 256.888 97.8536 256.632 97.7358C256.375 97.618 256.071 97.7302 255.952 97.986C255.928 98.0376 253.516 103.219 248.763 108.991C244.392 114.299 237.086 121.211 227.104 123.998C226.833 124.074 226.674 124.355 226.75 124.628C226.825 124.9 227.107 125.059 227.378 124.985" fill="#3A65B9"/>
<path d="M239.028 125.536C247.931 123.092 255.418 115.581 255.757 115.237C255.955 115.035 255.953 114.711 255.752 114.512C255.55 114.314 255.226 114.317 255.028 114.518C254.94 114.606 246.131 123.44 236.605 125.024C236.321 125.069 236.137 125.335 236.184 125.613C236.23 125.893 236.494 126.081 236.773 126.035C237.532 125.908 238.285 125.74 239.028 125.536" fill="#3A65B9"/>
<path d="M232.727 59.6618C241.625 57.195 249.091 49.6657 249.43 49.3202C249.628 49.1183 249.625 48.7941 249.423 48.5967C249.221 48.3981 248.897 48.4026 248.698 48.6034C248.611 48.692 239.824 57.5484 230.303 59.1559C230.019 59.2019 229.835 59.4677 229.882 59.7459C229.929 60.0253 230.194 60.2137 230.472 60.1666C231.231 60.0387 231.984 59.8671 232.727 59.6618" fill="#3A65B9"/>
<path d="M310.804 218.769L314.387 226.745L307.04 229.906L302.766 221.668L310.804 218.769" fill="#F49477"/>
<path d="M312.782 226.577C312.782 226.577 313.535 223.353 315.02 222.829C316.504 222.306 331.454 226.298 335.576 225.37C339.699 224.442 340.179 227.564 340.106 229.3C340.031 231.035 309.523 241.979 309.523 241.979C309.523 241.979 304.866 233.509 304.657 230.387C304.45 227.266 310.086 228.512 312.782 226.577" fill="#3F77C4"/>
<path d="M321.605 230.062C321.487 230.162 321.331 230.215 321.167 230.198C320.848 230.162 320.618 229.876 320.651 229.558C320.662 229.452 320.945 226.928 322.167 225.459C323.789 223.501 325.922 223.971 326.013 223.991C326.326 224.064 326.52 224.376 326.449 224.688C326.377 225.002 326.063 225.197 325.751 225.123C325.692 225.111 324.217 224.81 323.06 226.201C322.066 227.398 321.809 229.66 321.807 229.683C321.791 229.837 321.714 229.97 321.605 230.062" fill="white"/>
<path d="M319.363 229.256C319.246 229.355 319.089 229.406 318.925 229.389C318.606 229.356 318.375 229.069 318.409 228.75C318.42 228.642 318.704 226.118 319.925 224.649C321.548 222.69 323.68 223.161 323.771 223.183C324.084 223.254 324.278 223.566 324.205 223.88C324.135 224.192 323.82 224.387 323.509 224.313C323.449 224.302 321.974 224 320.817 225.391C319.819 226.595 319.567 228.85 319.564 228.873C319.549 229.028 319.472 229.162 319.363 229.256" fill="white"/>
<path d="M324.287 230.343C324.171 230.443 324.015 230.496 323.851 230.479C323.531 230.443 323.3 230.157 323.335 229.838C323.346 229.732 323.628 227.208 324.849 225.738C326.472 223.78 328.607 224.25 328.697 224.271C329.01 224.344 329.204 224.656 329.132 224.968C329.059 225.281 328.747 225.477 328.434 225.403C328.376 225.39 326.898 225.09 325.743 226.481C324.745 227.682 324.493 229.939 324.491 229.963C324.473 230.116 324.398 230.25 324.287 230.343" fill="white"/>
<path d="M312.654 220.317C311.892 221.181 309.541 222.494 306.978 223.641C306.512 223.851 306.037 224.054 305.565 224.249C304.733 224.592 303.906 224.905 303.13 225.17C303.13 225.17 285.7 193.043 279.011 169.746C279.011 169.746 220.011 162.461 217.969 141.798C217.898 141.107 217.895 140.4 217.96 139.675C218.133 137.705 218.816 135.625 220.091 133.424C221.437 131.105 241.629 133.366 252.539 136.427C252.539 136.427 282.115 147.949 293.05 159.818C298.585 165.825 312.654 220.317 312.654 220.317Z" fill="#343054"/>
<path d="M306.978 223.642C306.512 223.851 306.037 224.054 305.565 224.25C296.749 209.661 284.51 175.576 281.782 167.395C281.599 166.842 281.124 166.428 280.543 166.318C251.879 160.929 235.363 153.411 226.553 148.053C222.672 145.692 219.901 143.538 217.969 141.798C217.898 141.107 217.895 140.4 217.96 139.675C219.834 141.508 222.862 144.034 227.523 146.851C236.219 152.108 252.524 159.494 280.827 164.816C281.953 165.028 282.873 165.832 283.234 166.911C285.963 175.099 298.252 209.337 306.978 223.642Z" fill="#1E1D33"/>
<path d="M299.983 221.804L302.766 226.255C302.766 226.255 309.697 225.058 314.387 220.316L312.654 216.34C312.654 216.34 304.223 220.496 299.983 221.804Z" fill="#4C4685"/>
<path d="M206.081 145.618C206.081 145.618 210.097 151.062 209.765 153.879C209.434 156.697 205.799 162.005 202.892 162.261C199.987 162.517 206.232 155.44 204.758 155.668C202.974 155.944 190.932 165.824 188.391 165.824C185.85 165.824 191.38 161.232 193.535 160.071C193.535 160.071 187.839 162.62 186.512 163.946C185.187 165.272 184.223 162.428 190.853 158.395C190.853 158.395 184.772 161.846 184.358 161.902C183.005 162.081 186.864 157.559 190.187 155.922C190.187 155.922 185.313 158.296 184.817 158.306C184.131 158.32 185.602 156.725 189.219 154.72C192.474 152.917 197.806 144.633 197.806 144.633L206.081 145.618" fill="#F49477"/>
<path d="M215.847 50.3021C215.847 50.3021 202.333 76.2588 199.256 103.409L197.806 144.634C197.806 144.634 199.196 147.572 206.081 145.619L212.742 104.398L217.846 85.5381C217.846 85.5381 220.166 62.3275 215.847 50.3021Z" fill="#007EC6"/>
<path d="M257.353 22.2362C255.918 30.3578 248.171 35.7771 240.05 34.3412C231.929 32.9065 226.51 25.1584 227.945 17.0379C229.38 8.91738 237.127 3.49696 245.249 4.93282C253.37 6.36869 258.79 14.1157 257.353 22.2362Z" fill="#343054"/>
<path d="M257.578 19.5576C257.578 19.5576 261.947 19.1448 262.111 15.0055C262.252 11.4831 257.817 12.9986 258.649 10.3737C259.479 7.74759 260.7 5.44348 257.342 4.15681C254.403 3.03055 253.983 5.10694 250.524 1.37593C246.436 -3.03151 241.349 4.60214 237.093 4.10631C230.816 3.3738 229.411 6.74922 228.302 9.45157C227.195 12.1539 229.238 14.5478 229.238 14.5478L257.578 19.5576" fill="#343054"/>
<path d="M254.156 25.9144C254.156 25.9144 257.034 23.221 258.312 26.095C259.59 28.969 255.8 36.1214 251.888 33.52L254.156 25.9144Z" fill="#F36156"/>
<path d="M253.228 31.3395C253.384 31.3676 253.547 31.2902 253.619 31.1399C254.69 28.9143 257.285 28.3926 257.309 28.3881C257.507 28.3511 257.637 28.1604 257.599 27.963C257.562 27.7656 257.372 27.6354 257.175 27.6725C257.054 27.696 254.196 28.2614 252.964 30.8235C252.876 31.0053 252.952 31.2229 253.134 31.3092L253.228 31.3395Z" fill="#F04147"/>
<path d="M255.886 30.5923L256.089 30.571C256.274 30.4925 256.361 30.2793 256.284 30.0942C256.27 30.0639 255.957 29.3326 255.131 28.7717C254.965 28.6595 254.738 28.7032 254.625 28.8693C254.513 29.0364 254.556 29.2607 254.722 29.374C255.362 29.8082 255.611 30.3702 255.612 30.3758C255.662 30.4936 255.768 30.5721 255.886 30.5923" fill="#F04147"/>
<path d="M234.753 37.1254L233.42 44.6682C233.42 44.6682 235.934 48.5406 238.929 49.3393C241.921 50.1425 244.408 46.8591 244.408 46.8591L245.69 39.6057L234.753 37.1254" fill="#F49477"/>
<path d="M234.753 37.1252L234.161 40.4714C235.801 43.0975 239.327 44.3045 244.832 44.4604L245.69 39.6054L234.753 37.1252Z" fill="#F36156"/>
<path d="M230.225 16.3477C229.846 19.3036 229.478 23.0189 229.518 26.0488C229.53 26.8037 229.566 27.5205 229.632 28.1678C230.236 34.0055 232.523 44.2394 244.339 42.2337C249.559 41.3498 252.801 36.2838 254.798 30.9015C256.153 27.2468 256.931 23.4485 257.364 20.7125C257.803 17.9193 256.733 15.1059 254.553 13.3055C248.649 8.42688 241.481 8.58951 236.614 9.53516C233.235 10.1914 230.66 12.9397 230.225 16.3477" fill="#F49477"/>
<path d="M248.394 25.911C248.252 26.7165 248.551 27.4422 249.063 27.5331C249.576 27.624 250.105 27.044 250.248 26.2386C250.39 25.4332 250.09 24.7074 249.579 24.6165C249.067 24.5268 248.536 25.1056 248.394 25.911Z" fill="#343054"/>
<path d="M237.54 23.9928C237.398 24.7971 237.697 25.5229 238.21 25.6149C238.722 25.7046 239.252 25.1258 239.394 24.3203C239.536 23.5149 239.236 22.7891 238.725 22.6982C238.213 22.6074 237.683 23.1873 237.54 23.9928Z" fill="#343054"/>
<path d="M253.127 22.131C253.127 22.131 249.539 19.9245 246.341 20.6828L246.345 22.1052C246.345 22.1052 249.69 21.956 252.633 23.688C252.941 23.0867 253.263 22.8298 253.127 22.131" fill="#343054"/>
<path d="M235.472 19.0103C235.472 19.0103 239.6 18.1678 242.344 19.9761L241.851 21.311C241.851 21.311 238.762 20.0244 235.403 20.6424C235.319 19.9716 235.106 19.6194 235.472 19.0103" fill="#343054"/>
<path d="M242.245 30.7403C241.64 30.6337 241.083 30.2916 240.996 30.2377C240.827 30.13 240.775 29.9057 240.883 29.7363C240.99 29.5658 241.215 29.5142 241.384 29.6219C241.685 29.8103 242.425 30.1536 242.798 30.0122C242.87 29.9842 242.972 29.9236 243.033 29.7094C243.383 28.481 243.783 24.2262 243.787 24.1835C243.805 23.9827 243.982 23.8358 244.182 23.8549C244.383 23.8728 244.53 24.05 244.511 24.2508C244.494 24.4292 244.101 28.6168 243.733 29.9091C243.594 30.3959 243.289 30.6034 243.057 30.6921C242.803 30.7885 242.52 30.7885 242.245 30.7403" fill="#F36156"/>
<path d="M246.365 33.73C245.812 35.1512 244.359 37.6898 241.08 37.1109C237.794 36.5299 237.31 33.8892 237.294 32.1258L246.365 33.73Z" fill="white"/>
<path d="M240.795 38.989C239.867 38.8252 239.164 38.2161 239.134 38.1903C238.983 38.0579 238.967 37.8279 239.1 37.6765C239.232 37.5262 239.463 37.5105 239.613 37.6428C239.619 37.6484 240.198 38.1443 240.921 38.2721C241.584 38.3899 242.287 38.1207 242.292 38.1196C242.48 38.0444 242.69 38.1353 242.766 38.3226C242.84 38.5088 242.749 38.7209 242.561 38.7949C242.526 38.8095 241.67 39.1438 240.795 38.989" fill="#F36156"/>
<path d="M254.102 28.3698C254.634 26.9407 255.239 25.0796 255.216 24.0678C255.173 22.2763 253.92 21.0054 254.693 19.4226C255.467 17.8319 254.02 15.7263 252.773 15.2002C251.529 14.6696 248.381 14.7795 245.645 12.8344C243.034 10.9745 237.907 11.0676 236.776 12.7536C235.407 14.7975 236.7 15.2406 233.61 17.1644C232.379 17.9317 233.2 20.6341 233.096 22.2786C233.045 23.0358 232.993 23.3992 232.823 24.1912L232.74 24.5939L229.549 24.0297C229.64 21.4664 229.926 18.6732 230.224 16.3467C230.659 12.9387 233.236 10.1926 236.614 9.53636C241.482 8.58959 248.648 8.4247 254.554 13.3055C256.733 15.1082 257.804 17.9194 257.363 20.7126C257.021 22.8821 256.46 25.7213 255.565 28.6289L254.102 28.3698" fill="#343054"/>
<path d="M230.72 25.6586C230.877 24.8263 230.965 23.9804 230.965 23.1324C230.964 21.9736 230.819 20.8956 229.751 20.2236C228.892 19.6829 227.905 19.5012 227.017 20.4199C224.832 22.6814 225.348 31.0139 229.915 29.9112L230.72 25.6586Z" fill="#F49477"/>
<path d="M229.507 27.4402C229.359 27.3819 229.262 27.2316 229.277 27.0656C229.52 24.6066 227.576 22.814 227.555 22.7961C227.407 22.6615 227.395 22.4315 227.53 22.2823C227.664 22.1331 227.895 22.1208 228.043 22.2554C228.134 22.3373 230.281 24.306 230.002 27.1373C229.982 27.337 229.805 27.4817 229.604 27.4627L229.507 27.4402Z" fill="#F36156"/>
<path d="M227.626 25.4196L227.463 25.294C227.346 25.1313 227.383 24.9036 227.545 24.7858C227.572 24.7667 228.221 24.3057 229.218 24.2564C229.418 24.2463 229.589 24.4011 229.599 24.603C229.608 24.8026 229.453 24.9743 229.253 24.9832C228.481 25.0214 227.976 25.3725 227.972 25.3759C227.868 25.451 227.737 25.4634 227.626 25.4196" fill="#F36156"/>
<path d="M399.271 198.083C399.271 198.083 394.355 207.406 388.569 214.791C386.86 216.97 385.08 218.98 383.322 220.53C380.478 223.048 377.702 224.364 375.443 223.247C367.061 219.108 348.377 186.163 348.377 186.163L352.977 180.815C352.977 180.815 361.294 190.224 367.375 195.855C372.985 201.048 377.297 204.929 377.297 204.929C378.074 203.77 378.902 202.502 379.761 201.16C380.676 199.734 381.625 198.226 382.591 196.674C389.594 185.409 398.028 173.087 398.028 173.087L399.271 198.083" fill="#F49477"/>
<path d="M354.198 184.05C354.198 184.05 356.095 180.935 355.361 178.147C354.628 175.358 353.915 169.053 350.868 169.225C349.755 169.287 351.381 171.921 350.635 174.361C350.635 174.361 347.372 172.789 345.188 171.175C343.267 169.756 339.289 167.45 337.44 166.397C336.932 166.109 336.346 166.662 336.64 167.159C337.114 167.963 338.275 169.163 340.957 170.843C340.957 170.843 334.293 167.111 333.177 167.931C332.06 168.751 340.48 173.267 340.48 173.267C340.48 173.267 333.68 170.519 333.124 171.525C332.785 172.137 339.453 176.053 339.453 176.053C339.453 176.053 332.83 174.009 334.06 175.56C334.417 176.012 346.998 181.705 349.62 188.315C349.62 188.315 353.286 186.307 354.198 184.05" fill="#F49477"/>
<path d="M388.569 214.792C386.86 216.97 385.08 218.98 383.322 220.531L379.761 201.16C380.676 199.734 381.625 198.227 382.591 196.674L388.569 214.792" fill="#F36156"/>
<path d="M398.281 172.219L380.567 197.768L386.205 220.531L400.104 198.358C400.104 198.358 402.706 183.522 398.281 172.219Z" fill="#007EC6"/>
<path d="M407.372 390.821V398.887L414.901 398.768L415.393 390.221L407.372 390.821" fill="#F49477"/>
<path d="M426.488 272.98C426.435 273.938 426.175 278.541 425.78 284.958C424.719 302.589 422.735 333.918 421.57 340.957C420.375 348.178 420.915 371.859 421.3 384.254C421.362 386.362 420.541 388.277 419.169 389.682C418.659 390.202 418.067 390.651 417.422 391.018C416.3 391.639 415.01 391.996 413.638 391.996H407.899C403.575 391.996 400.102 388.491 400.238 384.254C400.56 373.774 400.954 354.656 400.206 339.887C399.488 325.831 400.528 300.959 401.329 285.457H401.339C401.662 279.264 401.943 274.579 402.056 272.665L426.488 272.98" fill="#343054"/>
<path d="M402.056 272.665L426.488 272.98C426.435 273.938 426.175 278.541 425.78 284.958C417.484 285.957 408.845 286.374 401.339 285.457C401.662 279.264 401.943 274.579 402.056 272.665" fill="#1E1D33"/>
<path d="M419.074 362.148C419.289 370.075 419.511 378.271 419.365 384.878C419.324 386.733 419.258 388.319 419.171 389.678C418.66 390.204 418.069 390.657 417.417 391.016C417.558 389.438 417.667 387.419 417.724 384.844C417.866 378.274 417.645 370.099 417.431 362.19C417.168 352.526 416.922 343.397 417.459 339.51C418.631 331.006 421.253 284.904 421.94 272.596L423.584 272.669C422.896 284.969 420.267 331.164 419.086 339.725C418.567 343.483 418.815 352.551 419.074 362.148" fill="#1E1D33"/>
<path d="M409.302 398.585C409.302 398.585 407.743 396.437 406.465 396.5C405.187 396.561 395.174 404.017 391.787 404.577C388.402 405.138 389.002 407.583 389.591 408.84C390.181 410.097 416.499 408.95 416.499 408.95C416.499 408.95 417.393 401.303 416.586 398.939C415.782 396.578 411.926 399.197 409.302 398.585Z" fill="#3F77C4"/>
<path d="M403.742 403.816C403.861 403.855 403.994 403.846 404.111 403.784C404.341 403.662 404.427 403.381 404.303 403.157C404.261 403.082 403.271 401.307 401.9 400.593C400.077 399.64 398.615 400.631 398.554 400.673C398.342 400.821 398.291 401.111 398.443 401.318C398.592 401.527 398.888 401.576 399.101 401.428C399.142 401.403 400.158 400.735 401.456 401.41C402.573 401.993 403.463 403.581 403.472 403.598C403.532 403.706 403.631 403.782 403.742 403.816" fill="white"/>
<path d="M405.179 402.545C405.297 402.582 405.43 402.575 405.549 402.511C405.779 402.39 405.864 402.109 405.741 401.884C405.698 401.809 404.709 400.034 403.337 399.319C401.513 398.369 400.052 399.358 399.992 399.401C399.779 399.549 399.728 399.838 399.88 400.047C400.031 400.254 400.325 400.303 400.538 400.156C400.578 400.13 401.595 399.461 402.893 400.138C404.014 400.722 404.901 402.308 404.909 402.325C404.969 402.434 405.068 402.509 405.179 402.545" fill="white"/>
<path d="M401.81 404.833C401.928 404.871 402.062 404.864 402.18 404.801C402.409 404.68 402.495 404.399 402.371 404.173C402.33 404.099 401.339 402.324 399.968 401.609C398.143 400.657 396.684 401.646 396.623 401.69C396.409 401.837 396.36 402.126 396.51 402.335C396.661 402.544 396.955 402.593 397.17 402.444C397.209 402.418 398.226 401.751 399.525 402.427C400.647 403.011 401.531 404.598 401.539 404.613C401.599 404.723 401.698 404.798 401.81 404.833" fill="white"/>
<path d="M444.042 390.821L444.853 398.873L451.571 398.768L452.062 390.221L444.042 390.821Z" fill="#F49477"/>
<path d="M457.873 339.887C457.125 354.656 457.52 373.774 457.842 384.254C457.966 388.491 454.504 391.996 450.18 391.996H444.442C443.173 391.996 441.966 391.689 440.918 391.16C440.284 390.835 439.69 390.426 439.181 389.937C437.642 388.522 436.706 386.495 436.779 384.254C437.164 371.859 437.705 348.178 436.509 340.957C435.324 333.796 433.286 301.509 432.237 284.061C431.893 278.236 431.654 274.071 431.591 273.042L456.065 273.357C456.137 274.6 456.251 276.515 456.387 278.939C457.176 292.892 458.704 323.621 457.873 339.887" fill="#343054"/>
<path d="M456.387 278.939C451.782 280.171 442.643 282.432 432.237 284.061C431.893 278.236 431.654 274.071 431.591 273.042L456.065 273.357C456.137 274.6 456.251 276.515 456.387 278.939" fill="#1E1D33"/>
<path d="M440.605 384.843C440.662 387.497 440.777 389.558 440.92 391.155C440.282 390.833 439.695 390.425 439.177 389.942C439.079 388.524 439.005 386.853 438.961 384.878C438.819 378.271 439.041 370.075 439.255 362.147C439.514 352.551 439.759 343.482 439.24 339.724C438.06 331.161 435.43 284.94 434.745 272.658L436.387 272.585C437.073 284.876 439.695 331.004 440.87 339.51C441.406 343.397 441.159 352.526 440.897 362.19C440.684 370.098 440.463 378.274 440.605 384.843" fill="#1E1D33"/>
<path d="M447.472 397.635C447.472 397.635 450.898 396.739 451.845 396.757C452.792 396.777 459.138 403.728 461.275 404.138C465.15 404.88 465.155 410.807 462.797 411.103C455.977 411.955 444.308 409.132 444.308 409.132C444.308 409.132 443.234 401.525 443.7 399.138C444.167 396.751 445.566 398.337 447.472 397.635" fill="#3F77C4"/>
<path d="M453.12 404.127C452.998 404.154 452.865 404.133 452.754 404.061C452.537 403.918 452.481 403.63 452.624 403.419C452.674 403.348 453.834 401.674 455.267 401.091C457.174 400.315 458.533 401.436 458.59 401.485C458.787 401.652 458.809 401.945 458.638 402.137C458.468 402.332 458.169 402.352 457.972 402.185C457.935 402.155 456.988 401.396 455.628 401.947C454.461 402.421 453.42 403.92 453.409 403.935C453.339 404.038 453.233 404.104 453.12 404.127" fill="white"/>
<path d="M451.813 402.726C451.691 402.754 451.56 402.732 451.449 402.659C451.231 402.517 451.174 402.23 451.319 402.017C451.367 401.946 452.527 400.272 453.96 399.69C455.87 398.912 457.226 400.034 457.283 400.084C457.48 400.25 457.502 400.543 457.331 400.735C457.161 400.929 456.862 400.951 456.665 400.784C456.628 400.753 455.68 399.994 454.323 400.545C453.149 401.021 452.114 402.518 452.104 402.532C452.033 402.636 451.927 402.703 451.813 402.726Z" fill="white"/>
<path d="M454.944 405.321C454.822 405.347 454.69 405.327 454.578 405.253C454.362 405.11 454.305 404.824 454.449 404.611C454.498 404.541 455.658 402.866 457.091 402.284C459.001 401.505 460.357 402.628 460.414 402.676C460.611 402.845 460.633 403.137 460.462 403.329C460.292 403.523 459.993 403.544 459.796 403.377C459.759 403.347 458.811 402.588 457.452 403.14C456.279 403.615 455.244 405.112 455.235 405.128C455.163 405.231 455.058 405.295 454.944 405.321" fill="white"/>
<path d="M461.619 275.453C439.515 280.904 417.438 280.918 395.384 275.453C395.268 267.381 395.151 235.101 395.788 208.607C395.799 208.085 395.813 207.567 395.827 207.051C395.831 206.794 395.839 206.538 395.846 206.287V206.245C395.855 205.914 395.862 205.589 395.874 205.263C396.345 187.79 397.168 173.521 398.577 171.615L398.58 171.613C401.871 167.183 418.409 160.108 422.986 156.948C423.367 157.549 425.618 160.891 428.568 161.138C431.807 161.418 434.685 157.685 434.685 157.685V156.979C439.281 160.136 454.264 166.684 457.552 171.101C461.148 175.943 461.771 261.699 461.619 275.453Z" fill="#007EC6"/>
<path d="M402.525 196.167C400.628 198.681 397.856 204.376 396.612 207.009C396.442 207.369 396.301 207.673 396.195 207.904C396.055 208.205 395.975 208.38 395.969 208.393L395.788 208.606C395.799 208.085 395.813 207.567 395.827 207.051C395.831 206.794 395.839 206.538 395.846 206.287V206.245C396.101 205.708 396.402 205.078 396.739 204.387C398.153 201.498 400.173 197.601 401.702 195.573C401.869 195.349 402.191 195.303 402.418 195.467C402.646 195.632 402.691 195.946 402.525 196.167" fill="#3A65B9"/>
<path d="M444.849 176.667H444.833C436.05 176.393 429.274 172.813 425.135 169.858C420.653 166.657 418.275 163.562 418.176 163.431C418.008 163.21 418.055 162.895 418.28 162.73C418.508 162.565 418.829 162.611 418.997 162.832C419.091 162.956 428.568 175.156 444.865 175.664C445.148 175.673 445.37 175.905 445.361 176.181C445.352 176.453 445.124 176.667 444.849 176.667" fill="#3A65B9"/>
<path d="M415.26 258.61C414.993 258.61 414.767 258.406 414.75 258.141C414.731 257.864 414.945 257.627 415.228 257.607C429.637 256.682 438.233 249.527 442.906 243.69C447.988 237.342 449.674 231.125 449.69 231.062C449.761 230.795 450.04 230.632 450.313 230.703C450.587 230.771 450.752 231.045 450.681 231.314C450.613 231.573 448.938 237.766 443.739 244.275C438.934 250.289 430.101 257.658 415.294 258.609L415.26 258.61" fill="#3A65B9"/>
<path d="M422.997 249.644C422.772 249.644 422.565 249.498 422.504 249.273C422.43 249.007 422.591 248.731 422.864 248.659C435.386 245.343 437.803 235.097 437.826 234.994C437.885 234.723 438.159 234.549 438.434 234.61C438.71 234.668 438.885 234.934 438.826 235.205C438.802 235.318 438.195 237.991 435.954 241.119C433.891 243.997 429.991 247.81 423.131 249.627L422.997 249.644" fill="#3A65B9"/>
<path d="M477.839 274.565C477.524 278.956 474.833 282.218 474.821 285.107C474.806 288.001 471.4 286.108 472.977 280.398C474.552 274.69 472.215 269.164 470.967 269.215C469.717 269.269 471.364 275.65 470.051 277.77C468.74 279.887 467.748 275.439 466.597 272.685C465.403 269.827 466.071 263.899 467.154 259.723C468.235 255.55 462.923 229.071 463.619 221.608L461.702 211.929L460.581 206.283L460.373 200.389L470.611 196.415C470.996 198.307 471.391 200.269 471.783 202.241C471.955 203.112 472.124 203.983 472.293 204.853C473.661 211.911 474.892 218.858 475.392 223.316C476.776 235.645 474.505 260.791 474.505 260.791C474.505 260.791 478.135 270.449 477.839 274.565Z" fill="#F49477"/>
<path d="M472.293 204.853C469.983 207.437 466.293 210.727 461.702 211.929L460.581 206.283L460.373 200.389L470.611 196.415C470.996 198.307 471.391 200.269 471.783 202.241C471.955 203.112 472.124 203.983 472.293 204.853" fill="#F36156"/>
<path d="M475.135 199.264C475.135 199.264 473.913 200.683 471.782 202.24C469.202 204.136 465.282 206.242 460.593 206.283C460.027 189.947 459.193 176.144 457.979 172.092C460.14 174.705 470.514 187.57 475.135 199.264" fill="#007EC6"/>
<path d="M453.567 194.527C455.464 197.04 458.236 202.735 459.48 205.368C459.649 205.729 459.789 206.033 459.897 206.263C460.038 206.563 460.117 206.738 460.122 206.752C460.206 206.94 460.394 207.05 460.591 207.05H460.601C460.596 206.795 460.588 206.539 460.58 206.285C460.731 206.285 460.883 206.285 461.029 206.28C460.959 206.132 460.793 205.771 460.555 205.262C460.255 204.623 459.841 203.744 459.353 202.747C457.939 199.855 455.919 195.958 454.391 193.932C454.222 193.709 453.902 193.662 453.674 193.827C453.447 193.99 453.401 194.306 453.567 194.527Z" fill="#3A65B9"/>
<path d="M444.311 130.712C444.311 139.56 438.751 145.658 429.721 145.658C420.689 145.658 414.394 139.102 414.394 130.254C414.394 121.405 419.742 114.701 428.774 114.701C439.605 114.701 444.311 121.864 444.311 130.712Z" fill="#343054"/>
<path d="M442.283 134.522C442.283 134.522 444.792 131.244 446.658 133.955C448.523 136.665 445.886 144.671 441.317 142.717L442.283 134.522" fill="#F36156"/>
<path d="M442.315 140.242C442.484 140.242 442.638 140.133 442.687 139.966C443.395 137.494 446.008 136.493 446.034 136.483C446.233 136.409 446.334 136.19 446.258 135.995C446.182 135.8 445.96 135.701 445.76 135.775C445.639 135.821 442.76 136.916 441.943 139.762C441.886 139.962 442.006 140.171 442.21 140.227L442.315 140.242" fill="#F04147"/>
<path d="M444.954 138.997L445.161 138.938C445.341 138.824 445.392 138.59 445.278 138.415C445.258 138.386 444.795 137.695 443.828 137.271C443.635 137.184 443.405 137.271 443.319 137.461C443.23 137.652 443.319 137.875 443.513 137.961C444.26 138.288 444.625 138.819 444.628 138.824C444.702 138.936 444.826 138.997 444.954 138.997" fill="#F04147"/>
<path d="M416.424 134.522C416.424 134.522 413.914 131.244 412.049 133.955C410.183 136.665 412.82 144.671 417.388 142.717L416.424 134.522Z" fill="#F36156"/>
<path d="M416.391 140.242C416.222 140.242 416.068 140.133 416.02 139.966C415.312 137.494 412.698 136.493 412.671 136.483C412.474 136.409 412.373 136.19 412.448 135.995C412.523 135.8 412.746 135.701 412.945 135.775C413.067 135.821 415.947 136.916 416.763 139.762C416.821 139.962 416.701 140.171 416.495 140.227L416.391 140.242" fill="#F04147"/>
<path d="M413.752 138.997L413.545 138.938C413.364 138.824 413.314 138.59 413.428 138.415C413.448 138.386 413.911 137.695 414.878 137.271C415.072 137.184 415.301 137.271 415.387 137.461C415.474 137.652 415.387 137.875 415.193 137.961C414.445 138.288 414.081 138.819 414.078 138.824C414.004 138.936 413.879 138.997 413.752 138.997" fill="#F04147"/>
<path d="M423.177 149.507V157.468C423.177 157.468 425.6 161.522 428.878 161.798C432.151 162.078 435.06 158.307 435.06 158.307V150.066L423.177 149.507Z" fill="#F49477"/>
<path d="M423.177 149.507V153.039C425.375 155.43 429.281 156.026 435.06 155.191V150.065L423.177 149.507Z" fill="#F36156"/>
<path d="M443.625 134.269C443.502 135.956 443.299 137.737 442.965 139.511C441.876 145.379 439.422 151.15 434.133 153.002C422.161 157.191 417.882 147.13 416.17 141.265C415.983 140.615 415.815 139.89 415.664 139.116C415.393 137.718 415.182 136.159 415.017 134.588C414.821 132.684 414.691 130.756 414.611 129.061C414.435 125.492 416.616 122.216 420.025 120.931C424.934 119.082 432.392 117.622 439.461 121.548C442.072 122.994 443.709 125.68 443.767 128.618C443.797 130.216 443.775 132.165 443.625 134.269" fill="#F49477"/>
<path d="M435.702 146.991V146.994H435.699C435.169 147.491 434.629 147.907 434.091 148.19C431.058 149.797 430.728 149.553 429.533 149.606C428.312 149.662 426.633 149.309 424.925 148.377C424.396 148.083 423.603 147.52 422.736 146.743C422.736 146.743 421.505 142.621 429.321 143.654C437.155 142.335 435.832 146.186 435.702 146.991V146.991ZM442.141 134.588C441.737 135.31 439.494 142.092 438.87 143.042C437.455 139.991 430.624 142.209 430.624 142.209C430.194 142.343 429.75 142.415 429.301 142.415C428.868 142.415 428.434 142.346 428.017 142.219L427.982 142.209C427.982 142.209 421.072 140.085 419.71 143.282C419.078 142.335 417.129 135.682 416.766 134.588H415.017C415.182 136.159 415.393 137.718 415.664 139.116C415.814 139.89 415.983 140.615 416.17 141.265C417.882 147.13 422.16 157.191 434.133 153.002C439.422 151.15 441.875 145.379 442.965 139.511C443.299 137.737 443.502 135.956 443.624 134.269L442.141 134.588" fill="#343054"/>
<path d="M434.489 135.561C434.489 136.411 434.935 137.1 435.486 137.1C436.038 137.1 436.486 136.411 436.486 135.561C436.486 134.711 436.038 134.022 435.486 134.022C434.935 134.022 434.489 134.711 434.489 135.561Z" fill="#343054"/>
<path d="M422.718 135.53C422.718 136.379 423.165 137.069 423.717 137.069C424.268 137.069 424.716 136.379 424.716 135.53C424.716 134.679 424.268 133.991 423.717 133.991C423.165 133.991 422.718 134.679 422.718 135.53Z" fill="#343054"/>
<path d="M439.446 131.215C439.446 131.215 435.621 129.734 432.675 130.98L432.97 132.586C432.97 132.586 437.293 132.228 439.472 133.093C439.667 132.475 439.695 131.85 439.446 131.215" fill="#343054"/>
<path d="M420.42 131.215C420.42 131.215 424.247 129.734 427.193 130.98L426.898 132.586C426.898 132.586 422.573 132.228 420.396 133.093C420.201 132.475 420.173 131.85 420.42 131.215Z" fill="#343054"/>
<path d="M429.218 141.517C428.568 141.517 427.922 141.269 427.822 141.228C427.624 141.15 427.529 140.929 427.611 140.736C427.691 140.542 427.916 140.45 428.113 140.528C428.461 140.667 429.299 140.884 429.661 140.671C429.731 140.63 429.828 140.55 429.852 140.319C429.991 138.998 429.622 134.572 429.619 134.527C429.601 134.319 429.759 134.136 429.971 134.12C430.185 134.102 430.37 134.256 430.387 134.465C430.403 134.65 430.766 139.007 430.619 140.397C430.563 140.921 430.283 141.188 430.058 141.321C429.812 141.465 429.515 141.517 429.218 141.517" fill="#F36156"/>
<path d="M434.489 144.289C434.172 145.843 433.125 148.705 429.591 148.705C426.05 148.705 425.057 146.09 424.716 144.289H434.489Z" fill="white"/>
<path d="M415.017 134.59H416.767C416.574 132.868 416.297 129.837 417.74 129.404C422.297 128.032 416.39 124.875 418.449 123.303C420.506 121.725 425.627 122.401 429.188 122.287C432.771 122.174 438.532 122.223 439.929 122.541C441.33 122.855 440.563 125.134 440.049 126.901C439.532 128.664 441.767 130.615 442.141 132.443C442.248 132.967 442.227 133.745 442.14 134.59H443.6C443.773 132.366 443.797 130.296 443.766 128.619C443.709 125.68 442.072 122.994 439.462 121.546C432.393 117.621 424.936 119.084 420.026 120.933C416.617 122.216 414.436 125.495 414.61 129.061C414.692 130.757 414.82 132.684 415.017 134.59" fill="#343054"/>
<path d="M158.496 328.327H69.6909C71.1584 319.419 78.2251 312.945 86.4614 312.972L114.093 313.053L141.725 312.972C149.961 312.945 157.028 319.419 158.496 328.327Z" fill="white"/>
<path d="M81.5148 409.85H76.6758V327.052H81.5148V409.85" fill="white"/>
<path d="M151.511 409.85H146.672V327.052H151.511V409.85" fill="white"/>
<path d="M146.672 354.918H81.5146V350.253H146.672V354.918Z" fill="#CFE6F4"/>
<path d="M92.3515 216.869C92.3515 216.869 77.52 236.649 75.5468 253.898C74.1535 266.081 92.3515 284.287 92.3515 284.287L98.62 281.167L92.3706 267.078C90.1472 260.215 87.4096 257.502 89.4316 250.579L93.9579 240.819L92.3515 216.869" fill="#007EC6"/>
<path d="M139.088 216.571C139.088 216.571 153.726 237.661 154.939 254.981C155.984 269.914 138.064 284.287 138.064 284.287L132.888 281.71L140.056 267.475C142.279 260.613 143.336 256.475 140.304 249.008L136.457 240.819L139.088 216.571" fill="#007EC6"/>
<path d="M95.3727 261.915L85.5422 293.189C85.5422 293.189 128.105 298.618 141.122 295.105L134.51 261.043L139.088 216.571C132.718 213.886 125.964 212.171 119.069 211.674C109.003 210.946 102.645 212.607 92.3517 216.869L95.3727 261.915" fill="#007EC6"/>
<path d="M106.014 226.299C115.403 225.198 124.139 218.748 124.536 218.452C124.768 218.279 124.816 217.951 124.643 217.72C124.47 217.486 124.141 217.44 123.909 217.612C123.806 217.688 113.526 225.273 103.638 225.407C103.345 225.408 103.117 225.649 103.122 225.939C103.125 226.227 103.363 226.46 103.652 226.456C104.441 226.445 105.229 226.39 106.014 226.299" fill="#3A65B9"/>
<path d="M113.579 393.852L114.346 400.757L121.69 400.925L122.306 395.195L113.579 393.852" fill="#F49477"/>
<path d="M112.427 284.372C112.427 284.372 93.4082 283.326 86.9665 288.597C80.5251 293.867 81.8199 308.991 88.3826 313.121C94.945 317.25 106.131 325.364 106.131 325.364L113.247 396.104L122.649 396.422C122.649 396.422 131.313 325.364 126.92 311.602C122.528 297.84 112.427 284.372 112.427 284.372" fill="#1E1D33"/>
<path d="M123.517 392.913C124.028 394.566 123.785 396.168 123.274 397.758L112.456 397.518C112.075 395.942 112.017 394.359 112.246 392.772L123.517 392.913" fill="#343054"/>
<path d="M139.34 283.837H89.4314L84.8198 256.865C84.4206 254.53 86.2198 252.397 88.589 252.397H140.183C142.552 252.397 144.351 254.53 143.952 256.865L139.34 283.837" fill="white"/>
<path d="M135.327 289.701H93.4947C91.2511 289.701 89.4316 287.883 89.4316 285.639V283.837H139.39V285.639C139.39 287.883 137.57 289.701 135.327 289.701" fill="#CFE6F4"/>
<path d="M118.832 269.228C118.832 271.623 116.891 273.563 114.498 273.563C112.104 273.563 110.163 271.623 110.163 269.228C110.163 266.835 112.104 264.893 114.498 264.893C116.891 264.893 118.832 266.835 118.832 269.228Z" fill="#CFE6F4"/>
<path d="M82.385 374.432L80.7576 381.265L87.3475 382.567L90.0329 376.465L82.385 374.432Z" fill="#F49477"/>
<path d="M122.089 283.201C122.089 283.201 109.352 278.808 101.885 288.031C94.419 297.255 81.916 375.113 81.916 375.113L90.4871 378.65L118.04 309.504C118.04 309.504 140.478 322.309 143.196 304.105C145.346 289.702 122.089 283.201 122.089 283.201" fill="#343054"/>
<path d="M92.4291 375.082C92.3977 376.867 91.6427 378.359 90.6286 379.756L80.0938 376.03C80.2278 374.361 80.6813 372.792 81.4179 371.309L92.4291 375.082Z" fill="#4C4685"/>
<path d="M85.7862 380.141C85.7862 380.141 81.7916 378.114 80.6155 377.883C79.4399 377.65 69.729 384.539 66.9781 384.473C61.9884 384.351 60.3916 391.677 63.2272 392.673C71.4289 395.557 86.6091 395.199 86.6091 395.199C86.6091 395.199 89.9802 386.086 90.043 383.01C90.1069 379.936 87.9531 381.519 85.7862 380.141Z" fill="#3F77C4"/>
<path d="M77.062 386.65C77.2054 386.715 77.3744 386.725 77.5318 386.665C77.8376 386.547 77.9858 386.207 77.8635 385.905C77.8228 385.804 76.8394 383.424 75.223 382.32C73.0736 380.846 71.0938 381.871 71.0101 381.915C70.7219 382.067 70.6162 382.424 70.7753 382.708C70.9334 382.993 71.2968 383.099 71.586 382.946C71.6403 382.918 73.0144 382.234 74.546 383.279C75.8627 384.18 76.747 386.313 76.7549 386.333C76.8153 386.479 76.9275 386.59 77.062 386.65" fill="white"/>
<path d="M79.0533 385.27C79.1966 385.334 79.3654 385.344 79.5231 385.285C79.8284 385.165 79.9775 384.826 79.8548 384.525C79.8136 384.424 78.8307 382.044 77.2147 380.939C75.0631 379.464 73.0851 380.488 73.0019 380.532C72.7127 380.686 72.6075 381.041 72.7665 381.327C72.9252 381.612 73.2885 381.718 73.5777 381.563C73.632 381.537 75.0066 380.852 76.5373 381.898C77.8602 382.803 78.7374 384.93 78.7461 384.952C78.8057 385.098 78.9188 385.208 79.0533 385.27Z" fill="white"/>
<path d="M74.4874 387.635C74.6311 387.701 74.799 387.711 74.9572 387.65C75.263 387.531 75.4115 387.192 75.2889 386.89C75.2477 386.789 74.2648 384.409 72.6483 383.304C70.4972 381.829 68.5192 382.855 68.436 382.899C68.1468 383.052 68.0416 383.408 68.2006 383.693C68.3588 383.977 68.7226 384.084 69.0118 383.929C69.0652 383.903 70.4407 383.218 71.9717 384.264C73.2938 385.169 74.1719 387.296 74.1802 387.317C74.2398 387.464 74.3529 387.574 74.4874 387.635" fill="white"/>
<path d="M117.179 400.469C117.179 400.469 121.268 399.228 122.411 399.205C123.553 399.183 131.531 407.265 134.125 407.659C138.832 408.374 139.116 415.519 136.287 415.985C128.105 417.332 113.906 414.476 113.906 414.476C113.906 414.476 112.253 405.357 112.704 402.458C113.155 399.558 114.915 401.404 117.179 400.469Z" fill="#3F77C4"/>
<path d="M124.293 408.031C124.147 408.068 123.987 408.049 123.849 407.967C123.582 407.805 123.499 407.461 123.664 407.198C123.719 407.111 125.038 405.039 126.738 404.268C129.002 403.242 130.692 404.532 130.762 404.588C131.009 404.778 131.048 405.131 130.852 405.372C130.656 405.613 130.297 405.653 130.051 405.461C130.005 405.426 128.828 404.554 127.215 405.283C125.829 405.909 124.645 407.766 124.634 407.784C124.553 407.911 124.43 407.996 124.293 408.031" fill="white"/>
<path d="M122.652 406.402C122.507 406.44 122.346 406.422 122.208 406.338C121.94 406.177 121.857 405.833 122.022 405.57C122.077 405.481 123.396 403.41 125.097 402.64C127.363 401.613 129.05 402.903 129.122 402.957C129.368 403.149 129.408 403.502 129.211 403.743C129.014 403.984 128.655 404.024 128.41 403.832C128.364 403.796 127.186 402.925 125.574 403.654C124.182 404.283 123.005 406.136 122.993 406.154C122.913 406.282 122.788 406.367 122.652 406.402" fill="white"/>
<path d="M126.548 409.383C126.402 409.42 126.243 409.402 126.105 409.318C125.837 409.156 125.754 408.812 125.918 408.55C125.975 408.462 127.293 406.39 128.993 405.619C131.259 404.592 132.946 405.883 133.018 405.938C133.264 406.131 133.303 406.482 133.107 406.723C132.912 406.965 132.552 407.004 132.306 406.811C132.26 406.777 131.082 405.905 129.47 406.634C128.078 407.264 126.9 409.117 126.889 409.135C126.808 409.263 126.685 409.347 126.548 409.383" fill="white"/>
<path d="M128.282 172.263C128.282 172.263 134.335 181.636 133.671 191.403C133.008 201.168 134.564 212.439 125.825 211.944C117.088 211.449 101.503 215.448 96.5482 207.842C91.5956 200.236 128.282 172.263 128.282 172.263Z" fill="#343054"/>
<path d="M130.525 189.5C130.525 189.5 132.096 203.655 125.38 207.552C118.663 211.449 113.802 207.099 113.802 207.099C113.802 207.099 127.96 187.369 130.525 189.5Z" fill="#1C1A2C"/>
<path d="M102.626 189.434C102.626 189.434 100.214 186.219 98.4215 188.878C96.6278 191.537 99.163 199.391 103.554 197.474L102.626 189.434" fill="#F36156"/>
<path d="M102.596 195.046C102.433 195.046 102.284 194.938 102.238 194.774C101.557 192.35 99.0452 191.368 99.0205 191.358C98.8287 191.285 98.7322 191.07 98.8051 190.88C98.878 190.688 99.0923 190.591 99.283 190.664C99.4008 190.708 102.168 191.783 102.952 194.575C103.007 194.772 102.893 194.976 102.695 195.032L102.596 195.046" fill="#F04147"/>
<path d="M100.059 193.825L99.8585 193.765C99.6869 193.654 99.6376 193.425 99.7475 193.253C99.7666 193.225 100.211 192.547 101.141 192.131C101.327 192.047 101.547 192.131 101.631 192.317C101.714 192.504 101.631 192.724 101.444 192.807C100.725 193.129 100.375 193.65 100.371 193.654C100.301 193.765 100.182 193.825 100.059 193.825" fill="#F04147"/>
<path d="M127.48 189.434C127.48 189.434 129.892 186.219 131.685 188.878C133.479 191.537 130.943 199.391 126.552 197.474L127.48 189.434" fill="#F36156"/>
<path d="M127.511 195.046C127.674 195.046 127.823 194.938 127.868 194.774C128.549 192.35 131.06 191.368 131.086 191.358C131.277 191.285 131.373 191.07 131.301 190.88C131.229 190.688 131.014 190.591 130.823 190.664C130.706 190.708 127.937 191.783 127.153 194.575C127.098 194.772 127.214 194.976 127.41 195.032L127.511 195.046" fill="#F04147"/>
<path d="M130.046 193.825L130.247 193.765C130.42 193.654 130.469 193.425 130.358 193.253C130.34 193.225 129.896 192.547 128.966 192.131C128.78 192.047 128.559 192.131 128.476 192.317C128.392 192.504 128.476 192.724 128.663 192.807C129.382 193.129 129.731 193.65 129.735 193.654C129.805 193.765 129.925 193.825 130.046 193.825" fill="#F04147"/>
<path d="M120.989 204.135V211.945C120.989 211.945 118.66 215.923 115.51 216.193C112.364 216.468 109.568 212.768 109.568 212.768V204.684L120.989 204.135" fill="#F49477"/>
<path d="M120.989 204.135V207.6C118.876 209.946 115.123 210.776 109.569 209.957L109.568 204.684L120.989 204.135Z" fill="#F36156"/>
<path d="M129.224 184.076C129.08 187.112 128.79 190.907 128.211 193.942C128.067 194.699 127.903 195.412 127.721 196.05C126.078 201.805 121.966 211.674 110.458 207.563C105.374 205.749 103.019 200.086 101.969 194.328C101.255 190.417 101.149 186.465 101.2 183.642C101.255 180.759 102.829 178.125 105.337 176.704C112.131 172.853 119.299 174.289 124.018 176.103C127.295 177.36 129.39 180.577 129.224 184.076" fill="#F49477"/>
<path d="M109.985 190.64C109.985 191.475 109.555 192.15 109.025 192.15C108.495 192.15 108.065 191.475 108.065 190.64C108.065 189.807 108.495 189.131 109.025 189.131C109.555 189.131 109.985 189.807 109.985 190.64Z" fill="#343054"/>
<path d="M121.836 190.64C121.836 191.475 121.407 192.15 120.876 192.15C120.347 192.15 119.917 191.475 119.917 190.64C119.917 189.807 120.347 189.131 120.876 189.131C121.407 189.131 121.836 189.807 121.836 190.64Z" fill="#343054"/>
<path d="M107.124 185.618C107.922 185.392 109.532 185.008 111.23 185.002C111.676 185.002 112.019 185.399 111.94 185.839L111.938 185.849C111.875 186.2 111.56 186.449 111.204 186.432C110.049 186.378 107.014 186.541 105.582 187.122C105.553 186.872 105.701 186.6 105.908 186.358C106.225 185.991 106.658 185.749 107.124 185.618" fill="#343054"/>
<path d="M122.63 185.648C121.833 185.423 120.223 185.038 118.525 185.033C118.078 185.032 117.736 185.429 117.814 185.869L117.817 185.88C117.88 186.231 118.195 186.48 118.55 186.464C119.706 186.41 122.74 186.572 124.173 187.152C124.201 186.903 124.054 186.631 123.845 186.388C123.53 186.023 123.096 185.779 122.63 185.648" fill="#343054"/>
<path d="M115.182 196.78C114.898 196.78 114.613 196.73 114.375 196.587C114.159 196.457 113.888 196.195 113.836 195.682C113.694 194.318 114.043 190.044 114.059 189.862C114.076 189.658 114.254 189.506 114.458 189.522C114.664 189.539 114.815 189.719 114.798 189.923C114.795 189.967 114.439 194.31 114.574 195.606C114.597 195.83 114.689 195.911 114.757 195.95C115.104 196.159 115.909 195.946 116.244 195.81C116.435 195.733 116.651 195.823 116.728 196.013C116.805 196.203 116.714 196.419 116.525 196.498C116.429 196.537 115.808 196.78 115.182 196.78" fill="#F36156"/>
<path d="M110.47 199.123C110.751 200.534 111.683 203.131 114.824 203.131C117.972 203.131 118.855 200.758 119.159 199.123H110.47Z" fill="white"/>
<path d="M114.779 205.296C113.872 205.296 113.072 204.808 113.038 204.787C112.864 204.679 112.81 204.45 112.918 204.276C113.026 204.102 113.253 204.048 113.427 204.155C113.434 204.16 114.087 204.554 114.779 204.554C115.527 204.554 116.197 204.157 116.204 204.154C116.38 204.048 116.606 204.105 116.713 204.281C116.817 204.456 116.762 204.682 116.587 204.789C116.554 204.81 115.739 205.296 114.779 205.296" fill="#F36156"/>
<path d="M130.718 183.472C130.598 183.81 130.267 184.026 129.824 184.156C129.857 184.975 129.771 185.959 129.691 186.902C129.232 192.266 127.88 193.207 127.574 191.881C127.372 191 127.385 185.95 127.481 184.303C126.422 184.233 125.517 184.057 125.517 184.057L124.273 178.85L123.837 183.993C121.972 184.641 117.618 183.601 117.618 183.601L116.159 178.47L115.255 183.408C112.457 184.77 108.959 183.862 108.959 183.862L108.156 178.537L106.3 183.862C106.3 183.862 100.331 186.005 100.266 183.862C100.225 182.616 101.138 179.107 101.91 176.388C102.75 173.422 104.699 170.917 107.333 169.505C114.738 165.53 122.569 167.644 125.255 169.249C130.952 172.649 130.718 183.472 130.718 183.472" fill="#343054"/>
<path d="M103.554 172.659C103.554 172.659 98.6391 178.505 97.0215 188.944C95.405 199.384 93.1659 207.099 99.4568 210.546C106.266 214.276 105.677 206.624 105.578 204.544C105.481 202.465 99.6879 196.781 103.554 180.77C104.802 175.6 103.554 172.659 103.554 172.659" fill="#343054"/>
<path d="M102.405 194.233V194.245C102.407 194.322 102.413 194.737 102.443 195.387C102.458 195.79 102.482 196.28 102.519 196.837C102.75 200.354 103.435 206.429 105.445 208.535C106.238 209.369 107.768 209.787 109.57 209.957V207.192C107.672 206.292 106.191 204.812 105.044 202.991C104.335 201.456 103.114 199.053 102.542 195.275L102.405 194.233" fill="#1C1A2C"/>
<path d="M129.313 197.649C129.313 198.13 128.924 198.519 128.444 198.519C127.963 198.519 127.574 198.13 127.574 197.649C127.574 197.17 127.963 196.78 128.444 196.78C128.924 196.78 129.313 197.17 129.313 197.649Z" fill="white"/>
<path d="M391.229 122.791H369.906C368.269 122.791 366.943 121.463 366.943 119.826V98.5047C366.943 96.868 368.269 95.5409 369.906 95.5409H391.229C392.866 95.5409 394.193 96.868 394.193 98.5047V119.826C394.193 121.463 392.866 122.791 391.229 122.791Z" fill="#3E80FF"/>
<path d="M389.846 109.166C389.846 111.41 389.049 113.468 387.722 115.073C386.02 117.131 383.448 118.444 380.567 118.444C377.689 118.444 375.116 117.132 373.414 115.074C372.088 113.469 371.29 111.41 371.29 109.166C371.29 104.04 375.444 99.8875 380.567 99.8875C385.691 99.8875 389.846 104.04 389.846 109.166Z" fill="white"/>
<path d="M387.722 115.073C386.02 117.131 383.448 118.444 380.567 118.444C377.689 118.444 375.116 117.132 373.414 115.074L373.538 114.827C373.739 114.43 374.017 114.082 374.351 113.802C374.685 113.52 375.075 113.306 375.501 113.177C377.011 112.716 378.413 112.249 379.199 110.9C378.243 110.45 377.605 109.549 377.338 108.914C376.288 109.139 375.534 107.196 376.095 106.681C376.308 106.486 376.525 106.431 376.715 106.442C376.888 104.467 378.546 102.701 380.567 102.701C382.589 102.701 384.248 104.467 384.422 106.442C384.611 106.431 384.828 106.486 385.04 106.681C385.602 107.196 384.848 109.139 383.798 108.914C383.569 109.623 382.782 110.478 382.071 110.778C382.858 112.127 384.123 112.716 385.635 113.177C386.062 113.306 386.451 113.52 386.784 113.802C387.118 114.082 387.396 114.43 387.597 114.827L387.722 115.073Z" fill="#3E80FF"/>
<path d="M45.2864 268.249H23.9639C22.3273 268.249 21 266.923 21 265.286V243.964C21 242.327 22.3273 241 23.9639 241H45.2864C46.923 241 48.2499 242.327 48.2499 243.964V265.286C48.2499 266.923 46.923 268.249 45.2864 268.249Z" fill="#3E80FF"/>
<path d="M34.6239 253.345C33.2344 253.345 32.106 252.219 32.106 250.827C32.106 249.436 33.2344 248.31 34.6239 248.31C36.016 248.31 37.1421 249.436 37.1421 250.827C37.1421 252.219 36.016 253.345 34.6239 253.345ZM35.0332 245.59C31.5535 245.358 28.6592 248.114 28.6592 251.54C28.6592 252.651 28.9633 253.691 29.494 254.582C30.2832 255.912 31.0974 257.228 31.847 258.581L34.6734 263.673L38.9835 255.898C39.2367 255.443 39.5102 255.002 39.7731 254.553C40.3178 253.631 40.6179 252.548 40.589 251.394C40.5171 248.34 38.0813 245.791 35.0332 245.59" fill="white"/>
<path d="M484.914 142.023C487.215 142.023 489.089 140.15 489.089 137.847C489.089 135.545 487.215 133.673 484.914 133.673C482.613 133.673 480.739 135.545 480.739 137.847C480.739 140.15 482.613 142.023 484.914 142.023ZM484.914 131.765C488.269 131.765 490.998 134.493 490.998 137.847C490.998 141.203 488.269 143.931 484.914 143.931C481.559 143.931 478.831 141.203 478.831 137.847C478.831 134.493 481.559 131.765 484.914 131.765Z" fill="#3F77C4"/>
<path d="M463.016 120.682C465.318 120.682 467.191 118.809 467.191 116.506C467.191 114.206 465.318 112.332 463.016 112.332C460.713 112.332 458.841 114.206 458.841 116.506C458.841 118.809 460.713 120.682 463.016 120.682ZM463.016 110.424C466.369 110.424 469.099 113.153 469.099 116.506C469.099 119.862 466.369 122.59 463.016 122.59C459.662 122.59 456.933 119.862 456.933 116.506C456.933 113.153 459.662 110.424 463.016 110.424Z" fill="#F1F1F1"/>
<path d="M455.501 90.6574C456.028 90.6574 456.455 91.0848 456.455 91.612V95.8198C456.455 96.347 456.028 96.7744 455.501 96.7744C454.973 96.7744 454.546 96.347 454.546 95.8198V91.612C454.546 91.0848 454.973 90.6574 455.501 90.6574Z" fill="#3F77C4"/>
<path d="M455.501 83.2943C456.028 83.2943 456.455 83.7216 456.455 84.2489V88.4566C456.455 88.9828 456.028 89.4102 455.501 89.4102C454.973 89.4102 454.546 88.9828 454.546 88.4566V84.2489C454.546 83.7216 454.973 83.2943 455.501 83.2943Z" fill="#3F77C4"/>
<path d="M449.594 89.0801H453.374C453.901 89.0801 454.328 89.5064 454.328 90.0336C454.328 90.5609 453.901 90.9883 453.374 90.9883H449.594C449.068 90.9883 448.641 90.5609 448.641 90.0336C448.641 89.5064 449.068 89.0801 449.594 89.0801Z" fill="#3F77C4"/>
<path d="M457.626 89.0801H461.408C461.934 89.0801 462.361 89.5064 462.361 90.0336C462.361 90.5609 461.934 90.9883 461.408 90.9883H457.626C457.1 90.9883 456.673 90.5609 456.673 90.0336C456.673 89.5064 457.1 89.0801 457.626 89.0801Z" fill="#3F77C4"/>
<path d="M108.212 55.9992C105.909 55.9992 104.037 57.8726 104.037 60.1744C104.037 62.4763 105.909 64.3486 108.212 64.3486C110.513 64.3486 112.386 62.4763 112.386 60.1744C112.386 57.8726 110.513 55.9992 108.212 55.9992ZM108.212 54.0911C111.565 54.0911 114.295 56.8203 114.295 60.1744C114.295 63.5285 111.565 66.2578 108.212 66.2578C104.857 66.2578 102.129 63.5285 102.129 60.1744C102.129 56.8203 104.857 54.0911 108.212 54.0911Z" fill="#3F77C4"/>
<path d="M86.0576 35.9071C83.7553 35.9071 81.883 37.7793 81.883 40.0812C81.883 42.3831 83.7553 44.2564 86.0576 44.2564C88.359 44.2564 90.2323 42.3831 90.2323 40.0812C90.2323 37.7793 88.359 35.9071 86.0576 35.9071ZM86.0576 33.9989C89.4112 33.9989 92.1404 36.7271 92.1404 40.0812C92.1404 43.4353 89.4112 46.1646 86.0576 46.1646C82.7032 46.1646 79.9746 43.4353 79.9746 40.0812C79.9746 36.7271 82.7032 33.9989 86.0576 33.9989Z" fill="#F1F1F1"/>
<path d="M78.0337 68.7696C78.0337 69.2957 78.4601 69.7231 78.9876 69.7231H83.1956C83.7223 69.7231 84.1496 69.2957 84.1496 68.7696C84.1496 68.2424 83.7223 67.815 83.1956 67.815H78.9876C78.4601 67.815 78.0337 68.2424 78.0337 68.7696Z" fill="#F1F1F1"/>
<path d="M70.6699 68.7696C70.6699 69.2957 71.0972 69.7231 71.6239 69.7231H75.8319C76.3585 69.7231 76.7857 69.2957 76.7857 68.7696C76.7857 68.2424 76.3585 67.815 75.8319 67.815H71.6239C71.0972 67.815 70.6699 68.2424 70.6699 68.7696Z" fill="#F1F1F1"/>
<path d="M76.4553 62.8623V66.6427C76.4553 67.1688 76.8822 67.5962 77.4097 67.5962C77.9364 67.5962 78.3641 67.1688 78.3641 66.6427V62.8623C78.3641 62.3362 77.9364 61.9088 77.4097 61.9088C76.8822 61.9088 76.4553 62.3362 76.4553 62.8623Z" fill="#F1F1F1"/>
<path d="M76.4553 70.895V74.6754C76.4553 75.2015 76.8822 75.6289 77.4097 75.6289C77.9364 75.6289 78.3641 75.2015 78.3641 74.6754V70.895C78.3641 70.3689 77.9364 69.9415 77.4097 69.9415C76.8822 69.9415 76.4553 70.3689 76.4553 70.895Z" fill="#F1F1F1"/>
<path d="M376.235 65.2729C376.363 65.3032 376.5 65.3043 376.635 65.2718C378.08 64.9162 378.917 64.7726 378.925 64.7704C379.364 64.6963 379.653 64.3037 379.573 63.8931C379.495 63.4825 379.076 63.21 378.639 63.284C378.603 63.2896 377.74 63.4377 376.228 63.809C375.797 63.9156 375.541 64.3284 375.653 64.7322C375.731 65.0082 375.96 65.2078 376.235 65.2729" fill="#CFE6F4"/>
<path d="M329.482 99.8996C328.732 101.183 328.01 102.513 327.336 103.855C327.169 104.187 326.776 104.352 326.41 104.264L326.263 104.215C325.863 104.037 325.69 103.587 325.88 103.209C326.567 101.84 327.306 100.483 328.071 99.1727C328.284 98.807 328.771 98.6724 329.163 98.8731C329.554 99.0739 329.696 99.5339 329.482 99.8996" fill="#CFE6F4"/>
<path d="M325.443 107.925C324.863 109.28 324.311 110.682 323.804 112.091C323.668 112.467 323.248 112.678 322.844 112.581L322.782 112.564C322.362 112.431 322.136 112.002 322.279 111.606C322.796 110.17 323.359 108.743 323.95 107.36C324.116 106.973 324.586 106.786 324.998 106.942C325.41 107.097 325.609 107.537 325.443 107.925Z" fill="#CFE6F4"/>
<path d="M318.62 130.055C318.231 129.963 317.968 129.61 318.02 129.226C318.226 127.723 318.468 126.219 318.741 124.756C318.817 124.346 319.235 124.071 319.673 124.143C320.116 124.217 320.403 124.606 320.327 125.016C320.059 126.457 319.82 127.939 319.617 129.419C319.56 129.833 319.157 130.126 318.716 130.072L318.62 130.055Z" fill="#CFE6F4"/>
<path d="M321.852 115.406C322.28 115.52 322.53 115.936 322.41 116.339C322.214 117.001 322.023 117.672 321.845 118.334C321.64 119.097 321.44 119.877 321.255 120.652C321.157 121.059 320.727 121.315 320.294 121.224L320.271 121.218C319.85 121.118 319.589 120.72 319.684 120.32C319.874 119.532 320.075 118.738 320.285 117.963C320.466 117.291 320.659 116.607 320.861 115.931C320.978 115.535 321.411 115.302 321.833 115.403L321.852 115.406" fill="#CFE6F4"/>
<path d="M331.882 96.0769C331.692 96.3595 331.333 96.4829 331.005 96.4055L330.772 96.3113C330.397 96.0881 330.284 95.6214 330.522 95.2681C331.38 93.9949 332.291 92.7318 333.229 91.5158C333.49 91.177 333.993 91.1018 334.354 91.3475C334.714 91.592 334.793 92.0643 334.533 92.4019C333.614 93.5921 332.722 94.8283 331.882 96.0769Z" fill="#CFE6F4"/>
<path d="M372.119 66.5586C370.651 67.0286 369.16 67.557 367.69 68.1268C367.523 68.1919 367.348 68.1997 367.185 68.1616C366.948 68.1044 366.74 67.9462 366.639 67.7173C366.47 67.3315 366.665 66.8895 367.076 66.7302C368.576 66.148 370.099 65.6096 371.599 65.1283C372.019 64.9937 372.477 65.2046 372.62 65.5983C372.764 65.9932 372.541 66.4228 372.119 66.5586Z" fill="#CFE6F4"/>
<path d="M359.167 71.9957C358.98 72.0933 358.769 72.1135 358.577 72.0686C358.371 72.0192 358.185 71.8925 358.071 71.704C357.856 71.3394 357.994 70.8795 358.383 70.6753C359.783 69.9428 361.225 69.2383 362.667 68.5832C363.068 68.4026 363.548 68.5586 363.742 68.9343C363.936 69.3101 363.768 69.7622 363.367 69.9439C361.953 70.5856 360.54 71.2766 359.167 71.9957Z" fill="#CFE6F4"/>
<path d="M343.903 82.4302C343.695 82.613 343.411 82.6725 343.155 82.6119C343.01 82.5771 342.875 82.5053 342.766 82.3954C342.461 82.0914 342.477 81.6124 342.803 81.3275C343.97 80.3011 345.191 79.2937 346.429 78.3335C346.772 78.0676 347.279 78.1125 347.562 78.4344C347.845 78.7564 347.797 79.2331 347.455 79.499C346.242 80.439 345.046 81.4251 343.903 82.4302" fill="#CFE6F4"/>
<path d="M351.193 76.7781C350.993 76.9161 350.745 76.9531 350.522 76.9004C350.347 76.8578 350.184 76.7613 350.069 76.6121C349.807 76.2744 349.888 75.8022 350.247 75.5565C351.538 74.6748 352.879 73.8155 354.237 73.0022C354.611 72.7779 355.11 72.8811 355.349 73.2322C355.589 73.5844 355.479 74.0511 355.104 74.2754C353.774 75.073 352.459 75.9144 351.193 76.7781Z" fill="#CFE6F4"/>
<path d="M337.427 88.8936C337.222 89.1258 336.9 89.2133 336.61 89.1438C336.497 89.118 336.389 89.0675 336.293 88.9946C335.952 88.7276 335.904 88.2508 336.188 87.93C337.209 86.7701 338.284 85.627 339.381 84.5299C339.687 84.2259 340.196 84.2113 340.52 84.4974C340.844 84.7834 340.86 85.2613 340.555 85.5653C339.48 86.6388 338.428 87.7584 337.427 88.8936Z" fill="#CFE6F4"/>
<path d="M377.036 60.1587L375.408 47.5645L418.075 53.6838L377.036 60.1587Z" fill="#3F77C4"/>
<path d="M418.075 53.6828L378.66 63.3649L378.556 63.3918L376.576 65.6611L377.036 60.1588L418.075 53.6828" fill="#3A65B9"/>
<path d="M376.576 65.6611L380.119 65.6174L378.556 63.3918L376.576 65.6611Z" fill="#3751AB"/>
<path d="M383.515 62.1724L378.555 63.3918L386.624 74.8799L418.075 53.684L383.515 62.1724" fill="#3F77C4"/>
</svg>
