<svg width="1429" height="371" viewBox="0 0 1429 371" fill="none" xmlns="http://www.w3.org/2000/svg">
<g id="Group 60">
<path id="Vector" d="M1429 370.07H1427.34C1427.34 350.749 1419.14 332.219 1404.54 318.556C1389.95 304.894 1370.15 297.218 1349.5 297.218C1328.86 297.218 1309.06 304.894 1294.46 318.556C1279.86 332.219 1271.66 350.749 1271.66 370.07H1270C1270 350.338 1278.38 331.413 1293.29 317.46C1308.19 303.507 1328.42 295.668 1349.5 295.668C1370.59 295.668 1390.81 303.507 1405.72 317.46C1420.62 331.413 1429 350.338 1429 370.07V370.07Z" fill="#3F3D56"/>
<path id="Vector_2" d="M819 241.831L875.388 179.416H986.251L1054 240.749L1052.63 241.567H1053.12V369.14H819.077V241.567L819 241.831Z" fill="#3F3D56"/>
<path id="Vector_3" d="M854 215.687H866V174.766H854V215.687Z" fill="#3F3D56"/>
<path id="Vector_4" d="M875.458 179.416L945 255.203V370.07H820V240.785L875.458 179.416Z" fill="#3E80FF"/>
<path id="Vector_5" d="M929 269.628H903V293.808H929V269.628Z" fill="#3F3D56"/>
<path id="Vector_6" d="M929 303.109H903V327.289H929V303.109Z" fill="#3F3D56"/>
<path id="Vector_7" d="M929 269.628H903V293.808H929V269.628Z" fill="white"/>
<path id="Vector_8" d="M929 303.109H903V327.289H929V303.109Z" fill="white"/>
<path id="Vector_9" d="M893 269.628H868V293.808H893V269.628Z" fill="#3F3D56"/>
<path id="Vector_10" d="M893 303.109H868V327.289H893V303.109Z" fill="#3F3D56"/>
<path id="Vector_11" d="M893 269.628H868V293.808H893V269.628Z" fill="white"/>
<path id="Vector_12" d="M893 303.109H868V327.289H893V303.109Z" fill="white"/>
<path id="Vector_13" d="M859 269.628H833V293.808H859V269.628Z" fill="#3F3D56"/>
<path id="Vector_14" d="M859 303.109H833V327.289H859V303.109Z" fill="#3F3D56"/>
<path id="Vector_15" d="M859 269.628H833V293.808H859V269.628Z" fill="white"/>
<path id="Vector_16" d="M859 303.109H833V327.289H859V303.109Z" fill="white"/>
<path id="Vector_17" d="M1106 32.4727H1095V60.3733H1106V32.4727Z" fill="#3E80FF"/>
<path id="Vector_18" d="M1105 57.583H1006V370.07H1105V57.583Z" fill="#3E80FF"/>
<path id="Vector_19" d="M1145 57.583H1105V370.07H1145V57.583Z" fill="#3F3D56"/>
<path id="Vector_20" d="M1039 85.4839H1024V98.5042H1039V85.4839Z" fill="white"/>
<path id="Vector_21" d="M1063 85.4839H1049V98.5042H1063V85.4839Z" fill="white"/>
<path id="Vector_22" d="M1087 85.4839H1073V98.5042H1087V85.4839Z" fill="white"/>
<path id="Vector_23" d="M1039 116.174H1025V131.055H1039V116.174Z" fill="white"/>
<path id="Vector_24" d="M1064 116.174H1049V131.055H1064V116.174Z" fill="white"/>
<path id="Vector_25" d="M1088 116.174H1073V131.055H1088V116.174Z" fill="white"/>
<path id="Vector_26" d="M1040 147.795H1025V161.746H1040V147.795Z" fill="white"/>
<path id="Vector_27" d="M1064 147.795H1049V161.746H1064V147.795Z" fill="white"/>
<path id="Vector_28" d="M1088 147.795H1074V161.746H1088V147.795Z" fill="white"/>
<path id="Vector_29" d="M1040 179.416H1026V194.296H1040V179.416Z" fill="white"/>
<path id="Vector_30" d="M1065 179.416H1050V194.296H1065V179.416Z" fill="white"/>
<path id="Vector_31" d="M1089 179.416H1074V194.296H1089V179.416Z" fill="white"/>
<path id="Vector_32" d="M1041 211.967H1026V224.987H1041V211.967Z" fill="white"/>
<path id="Vector_33" d="M1065 211.967H1050V224.987H1065V211.967Z" fill="white"/>
<path id="Vector_34" d="M1089 211.967H1075V224.987H1089V211.967Z" fill="white"/>
<path id="Vector_35" d="M1041 243.587H1026V256.608H1041V243.587Z" fill="white"/>
<path id="Vector_36" d="M1065 243.587H1051V256.608H1065V243.587Z" fill="white"/>
<path id="Vector_37" d="M1090 243.587H1075V256.608H1090V243.587Z" fill="white"/>
<path id="Vector_38" d="M1042 274.278H1027V289.158H1042V274.278Z" fill="white"/>
<path id="Vector_39" d="M1066 274.278H1051V289.158H1066V274.278Z" fill="white"/>
<path id="Vector_40" d="M1090 274.278H1075V289.158H1090V274.278Z" fill="white"/>
<path id="Vector_41" d="M1042 306.829H1027V319.849H1042V306.829Z" fill="white"/>
<path id="Vector_42" d="M1066 306.829H1052V319.849H1066V306.829Z" fill="white"/>
<path id="Vector_43" d="M1066 344.03H1052V369.14H1066V344.03Z" fill="white"/>
<path id="Vector_44" d="M1091 306.829H1076V319.849H1091V306.829Z" fill="white"/>
<path id="Vector_45" d="M1112 32.4727H1105V59.4433H1112V32.4727Z" fill="#3F3D56"/>
<path id="Vector_46" d="M1231 170.116H1220V186.856H1231V170.116Z" fill="#3E80FF"/>
<path id="Vector_47" d="M1230 184.996H1130V370.07H1230V184.996Z" fill="#3E80FF"/>
<path id="Vector_48" d="M1270 184.996H1230V370.07H1270V184.996Z" fill="#3F3D56"/>
<path id="Vector_49" d="M1165 211.967H1150V224.987H1165V211.967Z" fill="white"/>
<path id="Vector_50" d="M1190 211.967H1174V224.987H1190V211.967Z" fill="white"/>
<path id="Vector_51" d="M1214 211.967H1198V224.987H1214V211.967Z" fill="white"/>
<path id="Vector_52" d="M1166 243.587H1150V256.608H1166V243.587Z" fill="white"/>
<path id="Vector_53" d="M1190 243.587H1174V256.608H1190V243.587Z" fill="white"/>
<path id="Vector_54" d="M1214 243.587H1199V256.608H1214V243.587Z" fill="white"/>
<path id="Vector_55" d="M1166 274.278H1151V289.158H1166V274.278Z" fill="white"/>
<path id="Vector_56" d="M1191 274.278H1175V289.158H1191V274.278Z" fill="white"/>
<path id="Vector_57" d="M1215 274.278H1199V289.158H1215V274.278Z" fill="white"/>
<path id="Vector_58" d="M1167 306.829H1151V319.849H1167V306.829Z" fill="white"/>
<path id="Vector_59" d="M1191 306.829H1175V319.849H1191V306.829Z" fill="white"/>
<path id="Vector_60" d="M1191 344.03H1175V369.14H1191V344.03Z" fill="white"/>
<path id="Vector_61" d="M1215 306.829H1200V319.849H1215V306.829Z" fill="white"/>
<path id="Vector_62" d="M1237 170.116H1230V185.926H1237V170.116Z" fill="#3F3D56"/>
<path id="Vector_63" d="M1299.5 334.73C1311.37 334.73 1321 325.569 1321 314.269C1321 302.969 1311.37 293.809 1299.5 293.809C1287.63 293.809 1278 302.969 1278 314.269C1278 325.569 1287.63 334.73 1299.5 334.73Z" fill="#3E80FF"/>
<path id="Vector_64" opacity="0.2" d="M1315.59 300.318C1317.58 304.827 1317.85 309.874 1316.35 314.557C1314.85 319.24 1311.68 323.255 1307.4 325.884C1303.12 328.513 1298.02 329.584 1293 328.907C1287.98 328.23 1283.37 325.848 1280 322.187C1281.22 324.941 1283.04 327.407 1285.34 329.413C1287.64 331.418 1290.36 332.917 1293.32 333.803C1296.28 334.69 1299.4 334.944 1302.47 334.547C1305.54 334.151 1308.48 333.114 1311.09 331.508C1313.71 329.902 1315.93 327.765 1317.6 325.246C1319.28 322.727 1320.37 319.886 1320.8 316.919C1321.22 313.952 1320.98 310.931 1320.08 308.064C1319.18 305.198 1317.65 302.555 1315.59 300.318V300.318Z" fill="black"/>
<path id="Vector_65" d="M1300 314.269H1300.05L1301 371H1299L1300 314.269Z" fill="#3F3D56"/>
<path id="Vector_66" d="M1304.04 345.351L1303.54 344.471L1299.97 346.221L1300.47 347.101L1304.04 345.351Z" fill="#3F3D56"/>
<path id="Vector_67" d="M1363.5 315.199C1381.45 315.199 1396 301.666 1396 284.973C1396 268.28 1381.45 254.748 1363.5 254.748C1345.55 254.748 1331 268.28 1331 284.973C1331 301.666 1345.55 315.199 1363.5 315.199Z" fill="#3E80FF"/>
<path id="Vector_68" opacity="0.2" d="M1387.82 264.048C1390.83 270.628 1391.24 277.993 1388.97 284.829C1386.7 291.664 1381.9 297.523 1375.43 301.36C1368.97 305.197 1361.25 306.76 1353.66 305.772C1346.06 304.783 1339.1 301.307 1334 295.964C1335.84 299.984 1338.59 303.582 1342.07 306.51C1345.55 309.437 1349.67 311.624 1354.14 312.918C1358.61 314.212 1363.33 314.582 1367.97 314.004C1372.61 313.425 1377.07 311.912 1381.02 309.568C1384.97 307.224 1388.33 304.106 1390.86 300.429C1393.4 296.753 1395.04 292.606 1395.69 288.276C1396.34 283.946 1395.97 279.536 1394.61 275.353C1393.25 271.169 1390.93 267.312 1387.82 264.048V264.048Z" fill="black"/>
<path id="Vector_69" d="M1364.5 284.508H1364.58L1366 371H1363L1364.5 284.508Z" fill="#3F3D56"/>
<path id="Vector_70" d="M1369.68 331.837L1368.92 330.5L1363.48 333.16L1364.24 334.498L1369.68 331.837Z" fill="#3F3D56"/>
<path id="Vector_71" d="M722.5 333.799C734.374 333.799 744 324.639 744 313.339C744 302.039 734.374 292.878 722.5 292.878C710.626 292.878 701 302.039 701 313.339C701 324.639 710.626 333.799 722.5 333.799Z" fill="#3E80FF"/>
<path id="Vector_72" opacity="0.2" d="M738.457 300.318C740.497 304.705 740.774 309.615 739.238 314.172C737.701 318.729 734.451 322.635 730.069 325.193C725.686 327.751 720.457 328.793 715.315 328.134C710.173 327.475 705.454 325.158 702 321.596C703.247 324.276 705.113 326.675 707.469 328.626C709.825 330.578 712.614 332.035 715.644 332.898C718.673 333.761 721.871 334.008 725.015 333.622C728.159 333.237 731.174 332.228 733.851 330.665C736.529 329.102 738.804 327.024 740.521 324.572C742.237 322.121 743.353 319.357 743.791 316.47C744.229 313.584 743.979 310.644 743.058 307.855C742.137 305.066 740.567 302.494 738.457 300.318Z" fill="black"/>
<path id="Vector_73" d="M698 329.149C711.807 329.149 723 318.323 723 304.969C723 291.614 711.807 280.788 698 280.788C684.193 280.788 673 291.614 673 304.969C673 318.323 684.193 329.149 698 329.149Z" fill="#00A3FF"/>
<path id="Vector_74" opacity="0.2" d="M716.664 290.088C718.996 295.206 719.313 300.935 717.557 306.251C715.801 311.567 712.087 316.125 707.078 319.109C702.07 322.093 696.093 323.309 690.217 322.54C684.34 321.771 678.947 319.068 675 314.912C676.425 318.039 678.557 320.837 681.249 323.114C683.942 325.391 687.13 327.092 690.592 328.098C694.055 329.105 697.709 329.393 701.302 328.943C704.895 328.493 708.341 327.316 711.401 325.493C714.461 323.67 717.062 321.244 719.023 318.385C720.984 315.525 722.26 312.3 722.76 308.932C723.261 305.565 722.975 302.135 721.922 298.881C720.87 295.627 719.076 292.627 716.664 290.088Z" fill="black"/>
<path id="Vector_75" d="M722.5 315.199H722.579L724 371H721L722.5 315.199Z" fill="#3F3D56"/>
<path id="Vector_76" d="M698 305.899H698.106L700 371H696L698 305.899Z" fill="#3F3D56"/>
<path id="Vector_77" d="M726.25 344.579L725.752 343.699L722.179 345.449L722.677 346.329L726.25 344.579Z" fill="#3F3D56"/>
<path id="Vector_78" d="M702.361 341.359L701.782 340.336L697.627 342.37L698.206 343.393L702.361 341.359Z" fill="#3F3D56"/>
<path id="Vector_79" d="M780 355.19H729V356.607H736.954V370.07H738.599V356.607H769.579V370.07H771.224V356.607H780V355.19Z" fill="#3F3D56"/>
<path id="Vector_80" d="M832.464 361.204C830.44 361.204 828.452 361.643 826.7 362.479C824.921 361.152 822.713 360.28 820.344 359.968C817.975 359.656 815.548 359.917 813.356 360.721C811.164 361.525 809.302 362.836 807.996 364.496C806.691 366.155 805.997 368.092 806 370.07H844C843.793 367.663 842.488 365.41 840.347 363.765C838.207 362.12 835.39 361.205 832.464 361.204V361.204Z" fill="#3F3D56"/>
<path id="Vector_81" d="M1028.77 361.204C1026.8 361.204 1024.86 361.643 1023.16 362.479C1021.42 361.152 1019.27 360.28 1016.97 359.968C1014.66 359.656 1012.3 359.917 1010.16 360.721C1008.03 361.525 1006.22 362.836 1004.94 364.496C1003.67 366.155 1003 368.092 1003 370.07H1040C1039.8 367.663 1038.53 365.41 1036.44 363.765C1034.36 362.12 1031.62 361.205 1028.77 361.204V361.204Z" fill="#3F3D56"/>
<path id="Vector_82" d="M1157.16 361.204C1155.08 361.204 1153.04 361.643 1151.24 362.479C1149.42 361.152 1147.15 360.28 1144.72 359.968C1142.29 359.656 1139.8 359.917 1137.55 360.721C1135.3 361.525 1133.39 362.836 1132.05 364.496C1130.71 366.155 1130 368.092 1130 370.07H1169C1168.79 367.663 1167.45 365.41 1165.25 363.765C1163.05 362.12 1160.16 361.205 1157.16 361.204V361.204Z" fill="#3F3D56"/>
<path id="Vector_83" d="M1327.16 361.204C1325.08 361.204 1323.04 361.643 1321.24 362.479C1319.42 361.152 1317.15 360.28 1314.72 359.968C1312.29 359.656 1309.8 359.917 1307.55 360.721C1305.3 361.525 1303.39 362.836 1302.05 364.496C1300.71 366.155 1300 368.092 1300 370.07H1339C1338.79 367.663 1337.45 365.41 1335.25 363.765C1333.05 362.12 1330.16 361.205 1327.16 361.204V361.204Z" fill="#3F3D56"/>
<path id="Vector_84" d="M1407.46 361.204C1405.44 361.204 1403.45 361.643 1401.7 362.479C1399.92 361.152 1397.71 360.28 1395.34 359.968C1392.98 359.656 1390.55 359.917 1388.36 360.721C1386.16 361.525 1384.3 362.836 1383 364.496C1381.69 366.155 1381 368.092 1381 370.07H1419C1418.79 367.663 1417.49 365.41 1415.35 363.765C1413.21 362.12 1410.39 361.205 1407.46 361.204V361.204Z" fill="#3F3D56"/>
<path id="Vector_85" d="M799 316.129H786V328.474H792.026V370.07H793.651V328.474H799V316.129Z" fill="#3F3D56"/>
<path id="Vector_86" d="M780 350.54H729V351.47H780V350.54Z" fill="#3F3D56"/>
<path id="Vector_87" d="M780 345.89H729V347.75H780V345.89Z" fill="#3F3D56"/>
<path id="Vector_88" d="M780 342.169H729V344.029H780V342.169Z" fill="#3F3D56"/>
<path id="sun" d="M580.5 61C597.345 61 611 47.3447 611 30.5C611 13.6553 597.345 0 580.5 0C563.655 0 550 13.6553 550 30.5C550 47.3447 563.655 61 580.5 61Z" fill="#FFA665"/>
<path id="Vector_89" d="M1195.38 31.5339L1203 26.0394C1197.08 25.4506 1194.65 28.3612 1193.66 30.665C1189.03 28.9336 1184 31.2026 1184 31.2026L1199.24 36.1926C1198.47 34.3405 1197.13 32.7244 1195.38 31.5339V31.5339Z" fill="#3F3D56"/>
<g id="birds">
<path id="Vector_90" d="M811.383 59.9413L819 53.9472C813.082 53.3049 810.651 56.4801 809.656 58.9933C805.033 57.1046 800 59.5799 800 59.5799L815.241 65.0235C814.472 63.003 813.134 61.24 811.383 59.9413V59.9413Z" fill="#3F3D56"/>
<path id="Vector_91" d="M1311.98 89.1951L1320 83.7005C1313.77 83.1117 1311.21 86.0223 1310.16 88.3261C1305.3 86.5948 1300 88.8637 1300 88.8637L1316.04 93.8538C1315.23 92.0016 1313.82 90.3856 1311.98 89.1951V89.1951Z" fill="#3F3D56"/>
<path id="Vector_92" d="M874.982 43.6243L883 38.1297C876.771 37.5409 874.212 40.4515 873.164 42.7553C868.298 41.024 863 43.2929 863 43.2929L879.043 48.283C878.234 46.4308 876.825 44.8148 874.982 43.6243V43.6243Z" fill="#3F3D56"/>
<path id="Vector_93" d="M888.784 106.442L896 100.448C890.394 99.8059 888.09 102.981 887.148 105.494C882.768 103.606 878 106.081 878 106.081L892.439 111.525C891.71 109.504 890.442 107.741 888.784 106.442V106.442Z" fill="#3F3D56"/>
<path id="Vector_94" d="M1185.98 138.91L1194 133.915C1187.77 133.379 1185.21 136.025 1184.16 138.12C1179.3 136.546 1174 138.609 1174 138.609L1190.04 143.145C1189.23 141.461 1187.82 139.992 1185.98 138.91Z" fill="#3F3D56"/>
<path id="Vector_95" d="M575.756 43.1363L584.962 36.2888C577.81 35.555 574.872 39.1823 573.669 42.0534C568.082 39.8957 562 42.7234 562 42.7234L580.419 48.9422C579.49 46.634 577.872 44.62 575.756 43.1363V43.1363Z" fill="#3F3D56"/>
<path id="Vector_96" d="M482.756 96.1475L491.962 89.3C484.81 88.5662 481.872 92.1935 480.669 95.0646C475.082 92.907 469 95.7346 469 95.7346L487.419 101.953C486.49 99.6452 484.872 97.6312 482.756 96.1475V96.1475Z" fill="#3F3D56"/>
<path id="Vector_97" d="M504.756 49.6461L513.962 42.7985C506.81 42.0647 503.872 45.6921 502.669 48.5631C497.082 46.4055 491 49.2332 491 49.2332L509.419 55.452C508.49 53.1437 506.872 51.1297 504.756 49.6461V49.6461Z" fill="#3F3D56"/>
</g>
<g id="Group 58">
<path id="Vector_98" opacity="0.4" d="M306.5 171.976C291.312 171.976 279 160.317 279 145.935C279 131.553 291.312 119.895 306.5 119.895C321.688 119.895 334 131.553 334 145.935C334 160.317 321.688 171.976 306.5 171.976Z" fill="#3E80FF"/>
<path id="Vector_99" opacity="0.4" d="M357 176.626C346.507 176.626 338 168.506 338 158.49C338 148.474 346.507 140.355 357 140.355C367.493 140.355 376 148.474 376 158.49C376 168.506 367.493 176.626 357 176.626Z" fill="#3E80FF"/>
<path id="Vector_100" d="M160.534 362.683C158.991 367.819 153.706 371 153.706 371C153.706 371 150.923 365.854 152.466 360.717C154.009 355.581 159.294 352.4 159.294 352.4C159.294 352.4 162.077 357.547 160.534 362.683Z" fill="#3E80FF"/>
<path id="Vector_101" d="M158.338 361.226C154.472 365.078 154 371 154 371C154 371 159.796 370.676 163.662 366.824C167.528 362.972 168 357.05 168 357.05C168 357.05 162.204 357.374 158.338 361.226Z" fill="#3F3D56"/>
<path id="Vector_102" d="M336.37 322.707L340 316.923L306.12 289.158H219V297.256L250.459 329.648L286.76 336.589L336.37 322.707Z" fill="#3F3D56"/>
<path id="Vector_103" d="M204.527 305.395V287.298H215.839V293.005L219.399 289.105L248.2 316.865L253 321.491L259 344.624L248.2 370.07H193V318.021L204.527 305.395Z" fill="#3F3D56"/>
<path id="Vector_104" d="M248 317.059H340V370.07H248V317.059Z" fill="#3E80FF"/>
<path id="Vector_105" d="M270 332.869H287V370.07H270V332.869Z" fill="white"/>
<path id="Vector_106" d="M324 339.379V333.799H331V339.379H324.584H324Z" fill="white"/>
<path id="Vector_107" d="M324.584 344.03H331V349.61H324V344.03H324.584Z" fill="white"/>
<path id="Vector_108" d="M312 333.799H319V339.379H312V333.799Z" fill="white"/>
<path id="Vector_109" d="M312 344.03H319V349.61H312V344.03Z" fill="white"/>
<path id="Vector_110" d="M498.99 226.022L505 221.389L471.343 192.436H386V217.915L441.293 253.817L498.99 226.022Z" fill="#3F3D56"/>
<path id="Vector_111" d="M370.275 208.995L370.767 185.926H381.594V197.243L385.819 192.857L413.437 221.625L424.243 228.53L441 345.852L415.729 370.07H357V222.776L370.275 208.995Z" fill="#3F3D56"/>
<path id="Vector_112" d="M413 221.267H505V370.07H413V221.267Z" fill="#3E80FF"/>
<path id="Vector_113" d="M452 333.799H469V370.07H452V333.799Z" fill="white"/>
<path id="Vector_114" d="M487 344.029V338.449H495V344.029H487.666H487Z" fill="white"/>
<path id="Vector_115" d="M487.666 348.68H495V355.19H487V348.68H487.666Z" fill="white"/>
<path id="Vector_116" d="M475 338.449H483V344.029H475V338.449Z" fill="white"/>
<path id="Vector_117" d="M475 348.68H483V355.19H475V348.68Z" fill="white"/>
<path id="Vector_118" d="M438 344.029V338.449H445V344.029H438.583H438Z" fill="white"/>
<path id="Vector_119" d="M438.583 348.68H445V355.19H438V348.68H438.583Z" fill="white"/>
<path id="Vector_120" d="M426 338.449H433V344.029H426V338.449Z" fill="white"/>
<path id="Vector_121" d="M426 348.68H433V355.19H426V348.68Z" fill="white"/>
<path id="Vector_122" d="M425 228.707H495V242.657H425V228.707Z" fill="white"/>
<path id="Vector_123" d="M425 254.657H495V268.608H425V254.657Z" fill="white"/>
<path id="Vector_124" d="M425 280.607H495V294.558H425V280.607Z" fill="white"/>
<path id="Vector_125" d="M425 306.558H495V320.508H425V306.558Z" fill="white"/>
<path id="Vector_126" d="M146.99 226.022L153 221.389L119.343 192.436H33.9995V217.915L89.2922 253.817L146.99 226.022Z" fill="#3F3D56"/>
<path id="Vector_127" d="M18.4324 208.995V185.926H29.8864V197.243L34.1613 192.857L62.1082 221.625L73.0432 228.53L89.9995 345.852L64.428 370.07H4.99952V222.776L18.4324 208.995Z" fill="#3F3D56"/>
<path id="Vector_128" d="M61.9995 221.267H153V370.07H61.9995V221.267Z" fill="#3E80FF"/>
<path id="Vector_129" d="M101 333.799H117V370.07H101V333.799Z" fill="white"/>
<path id="Vector_130" d="M136 344.029V338.449H143V344.029H136.583H136Z" fill="white"/>
<path id="Vector_131" d="M136.583 348.68H143V355.19H136V348.68H136.583Z" fill="white"/>
<path id="Vector_132" d="M124 338.449H131V344.029H124V338.449Z" fill="white"/>
<path id="Vector_133" d="M124 348.68H131V355.19H124V348.68Z" fill="white"/>
<path id="Vector_134" d="M86.9995 344.029V338.449H93.9995V344.029H87.5824H86.9995Z" fill="white"/>
<path id="Vector_135" d="M87.5824 348.68H93.9995V355.19H86.9995V348.68H87.5824Z" fill="white"/>
<path id="Vector_136" d="M75 338.449H82V344.029H75V338.449Z" fill="white"/>
<path id="Vector_137" d="M75 348.68H82V355.19H75V348.68Z" fill="white"/>
<path id="Vector_138" d="M73 228.707H143V242.657H73V228.707Z" fill="white"/>
<path id="Vector_139" d="M73 254.657H143V268.608H73V254.657Z" fill="white"/>
<path id="Vector_140" d="M73 280.607H143V294.558H73V280.607Z" fill="white"/>
<path id="Vector_141" d="M73 306.558H143V320.508H73V306.558Z" fill="white"/>
<path id="Vector_142" d="M0 304.039H1V370.07H0V304.039Z" fill="white"/>
<path id="Vector_143" d="M185 320.779C201.016 320.779 214 308.912 214 294.274C214 279.635 201.016 267.768 185 267.768C168.984 267.768 156 279.635 156 294.274C156 308.912 168.984 320.779 185 320.779Z" fill="#3E80FF"/>
<path id="Vector_144" opacity="0.2" d="M205.74 276.138C208.413 281.987 208.775 288.534 206.763 294.61C204.751 300.686 200.495 305.894 194.756 309.304C189.017 312.715 182.169 314.105 175.436 313.226C168.703 312.347 162.522 309.257 158 304.508C159.633 308.081 162.076 311.28 165.161 313.882C168.246 316.484 171.899 318.428 175.866 319.578C179.833 320.728 184.021 321.058 188.138 320.544C192.255 320.029 196.203 318.684 199.709 316.6C203.216 314.517 206.196 311.745 208.443 308.477C210.691 305.209 212.152 301.523 212.725 297.674C213.299 293.825 212.971 289.906 211.765 286.187C210.559 282.468 208.503 279.04 205.74 276.138Z" fill="black"/>
<path id="Vector_145" d="M184.5 294.738H184.579L186 370.07H183L184.5 294.738Z" fill="#3F3D56"/>
<path id="Vector_146" d="M190.15 335.511L189.489 334.344L184.746 336.666L185.407 337.833L190.15 335.511Z" fill="#3F3D56"/>
<path id="Vector_147" d="M344.946 358.786C342.656 358.786 340.406 359.345 338.424 360.409C336.41 358.72 333.912 357.61 331.231 357.213C328.551 356.815 325.804 357.149 323.324 358.172C320.843 359.195 318.737 360.864 317.259 362.976C315.781 365.088 314.997 367.552 315 370.07H358C357.766 367.007 356.289 364.14 353.866 362.046C351.444 359.952 348.257 358.787 344.946 358.786V358.786Z" fill="#3F3D56"/>
<path id="Vector_148" d="M508.946 358.786C506.656 358.786 504.406 359.345 502.424 360.409C500.41 358.72 497.912 357.61 495.231 357.213C492.551 356.815 489.804 357.149 487.324 358.172C484.843 359.195 482.737 360.864 481.259 362.976C479.781 365.088 478.997 367.552 479 370.07H522C521.766 367.007 520.289 364.14 517.866 362.046C515.444 359.952 512.257 358.787 508.946 358.786V358.786Z" fill="#3F3D56"/>
<rect id="Rectangle 18" x="454" y="228.707" width="12" height="97.6522" fill="#3E80FF"/>
<rect id="Rectangle 19" x="103" y="228.707" width="12" height="97.6522" fill="#3E80FF"/>
</g>
<g id="Group 59">
<path id="Vector_149" d="M665.37 322.707L669 316.923L635.12 289.158H548V297.256L579.459 329.648L615.76 336.589L665.37 322.707Z" fill="#3F3D56"/>
<path id="Vector_150" d="M533.526 305.395V287.298H544.838V293.005L548.399 289.105L577.199 316.865L582 321.491L588 344.624L577.199 370.07H522V318.021L533.526 305.395Z" fill="#3F3D56"/>
<path id="Vector_151" d="M577 317.059H669V370.07H577V317.059Z" fill="#3E80FF"/>
<path id="Vector_152" d="M599 332.869H616V370.07H599V332.869Z" fill="white"/>
<path id="Vector_153" d="M653 339.379V333.799H660V339.379H653.583H653Z" fill="white"/>
<path id="Vector_154" d="M653.583 344.03H660V349.61H653V344.03H653.583Z" fill="white"/>
<path id="Vector_155" d="M641 333.799H648V339.379H641V333.799Z" fill="white"/>
<path id="Vector_156" d="M641 344.03H648V349.61H641V344.03Z" fill="white"/>
<path id="Vector_157" d="M673.945 358.786C671.655 358.786 669.406 359.345 667.423 360.409C665.41 358.72 662.911 357.61 660.231 357.213C657.55 356.815 654.803 357.149 652.323 358.172C649.843 359.195 647.736 360.864 646.259 362.976C644.781 365.088 643.996 367.552 644 370.07H687C686.765 367.007 685.288 364.14 682.866 362.046C680.444 359.952 677.256 358.787 673.945 358.786V358.786Z" fill="#3F3D56"/>
</g>
</g>
</svg>
