<svg width="787" height="425" viewBox="0 0 787 425" fill="none" xmlns="http://www.w3.org/2000/svg">
<path d="M74.7196 419.877L73.2129 419.516C90.0129 339.957 132.233 267.711 192.095 216.085C237.353 177.115 291.181 151.051 348.509 140.349C405.837 129.646 464.781 134.656 519.789 154.908C574.797 175.159 624.06 209.986 662.939 256.108C701.819 302.23 729.035 358.13 742.026 418.545L740.521 418.91C704.958 252.633 568.107 136.502 407.723 136.502C249.441 136.502 109.393 255.678 74.7196 419.877Z" fill="#3F3D56"/>
<path d="M658.022 225.49C681.186 225.49 699.964 205.494 699.964 180.827C699.964 156.16 681.186 136.163 658.022 136.163C634.857 136.163 616.079 156.16 616.079 180.827C616.079 205.494 634.857 225.49 658.022 225.49Z" fill="white"/>
<path d="M642.089 359.394H640.544V424.356H642.089V359.394Z" fill="#3F3D56"/>
<path d="M656.342 367.672C656.44 390.388 641.432 408.876 641.432 408.876C641.432 408.876 626.265 390.536 626.166 367.82C626.068 345.104 641.076 326.616 641.076 326.616C641.076 326.616 656.243 344.956 656.342 367.672Z" fill="#137C02"/>
<path opacity="0.4" d="M350.21 230.237C363.537 230.237 374.34 218.733 374.34 204.541C374.34 190.35 363.537 178.846 350.21 178.846C336.884 178.846 326.081 190.35 326.081 204.541C326.081 218.733 336.884 230.237 350.21 230.237Z" fill="#07A6FF"/>
<path opacity="0.4" d="M305.552 234.839C314.901 234.839 322.479 226.769 322.479 216.814C322.479 206.859 314.901 198.789 305.552 198.789C296.204 198.789 288.625 206.859 288.625 216.814C288.625 226.769 296.204 234.839 305.552 234.839Z" fill="#07A6FF"/>
<path opacity="0.4" d="M124.084 286.644C133.432 286.644 141.011 278.574 141.011 268.619C141.011 258.664 133.432 250.594 124.084 250.594C114.735 250.594 107.157 258.664 107.157 268.619C107.157 278.574 114.735 286.644 124.084 286.644Z" fill="#07A6FF"/>
<path opacity="0.4" d="M624.569 228.123C637.895 228.123 648.698 216.619 648.698 202.428C648.698 188.237 637.895 176.732 624.569 176.732C611.242 176.732 600.439 188.237 600.439 202.428C600.439 216.619 611.242 228.123 624.569 228.123Z" fill="#07A6FF"/>
<path d="M7.04834 417.132C8.35646 422.281 12.8369 425.47 12.8369 425.47C12.8369 425.47 15.1965 420.311 13.8885 415.162C12.5804 410.013 8.09992 406.824 8.09992 406.824C8.09992 406.824 5.74026 411.983 7.04834 417.132Z" fill="#3F3D56"/>
<path d="M8.97052 416.025C12.5599 419.746 12.9984 425.466 12.9984 425.466C12.9984 425.466 7.61723 425.153 4.02784 421.432C0.438447 417.711 0 411.992 0 411.992C0 411.992 5.38113 412.305 8.97052 416.025Z" fill="#07A6FF"/>
<path d="M479.639 417.132C480.947 422.281 485.428 425.47 485.428 425.47C485.428 425.47 487.788 420.311 486.48 415.162C485.172 410.013 480.691 406.824 480.691 406.824C480.691 406.824 478.331 411.983 479.639 417.132Z" fill="#3F3D56"/>
<path d="M481.562 416.025C485.151 419.746 485.589 425.466 485.589 425.466C485.589 425.466 480.208 425.153 476.619 421.432C473.03 417.711 472.591 411.992 472.591 411.992C472.591 411.992 477.972 412.305 481.562 416.025Z" fill="#07A6FF"/>
<path d="M15.9339 378.426L12.7393 372.757L42.5573 345.54H119.233V353.478L91.5446 385.231L59.596 392.035L15.9339 378.426Z" fill="#3F3D56"/>
<path d="M132.431 361.512V343.769H122.393V349.364L119.233 345.54L93.6742 372.757L89.414 377.293L84.0896 399.973L93.6742 424.921H142.661V373.891L132.431 361.512Z" fill="#CCCCCC"/>
<path d="M93.6742 372.757H12.7393V424.922H93.6742V372.757Z" fill="#F2F2F2"/>
<path d="M82.4923 389.2H65.4534V405.076H82.4923V389.2Z" fill="#3F3D56"/>
<path d="M58.5311 388.633H43.6221V424.921H58.5311V388.633Z" fill="#CCCCCC"/>
<path d="M26.5833 394.303V388.633H20.1941V394.303H26.0505H26.5833Z" fill="#3F3D56"/>
<path d="M26.0505 398.839H20.1941V404.509H26.5833V398.839H26.0505Z" fill="#3F3D56"/>
<path d="M37.2326 388.633H30.843V394.303H37.2326V388.633Z" fill="#3F3D56"/>
<path d="M37.2326 398.839H30.843V404.509H37.2326V398.839Z" fill="#3F3D56"/>
<path d="M116.57 394.87V389.2H110.18V394.87H116.037H116.57Z" fill="#3F3D56"/>
<path d="M116.037 399.406H110.18V405.076H116.57V399.406H116.037Z" fill="#3F3D56"/>
<path d="M127.219 389.2H120.83V394.87H127.219V389.2Z" fill="#3F3D56"/>
<path d="M127.219 399.406H120.83V405.076H127.219V399.406Z" fill="#3F3D56"/>
<path d="M324.045 378.426L320.85 372.757L350.668 345.54H427.344V353.478L399.655 385.231L367.707 392.035L324.045 378.426Z" fill="#3F3D56"/>
<path d="M440.542 361.512V343.769H430.503V349.364L427.344 345.54L401.785 372.757L397.525 377.293L392.2 399.973L401.785 424.921H450.772V373.891L440.542 361.512Z" fill="#CCCCCC"/>
<path d="M401.785 372.757H320.85V424.922H401.785V372.757Z" fill="#F2F2F2"/>
<path d="M390.603 389.2H373.564V405.076H390.603V389.2Z" fill="#3F3D56"/>
<path d="M366.642 388.633H351.733V424.921H366.642V388.633Z" fill="#CCCCCC"/>
<path d="M334.694 394.303V388.633H328.305V394.303H334.161H334.694Z" fill="#3F3D56"/>
<path d="M334.161 398.839H328.305V404.509H334.694V398.839H334.161Z" fill="#3F3D56"/>
<path d="M345.343 388.633H338.954V394.303H345.343V388.633Z" fill="#3F3D56"/>
<path d="M345.343 398.839H338.954V404.509H345.343V398.839Z" fill="#3F3D56"/>
<path d="M424.681 394.87V389.2H418.291V394.87H424.148H424.681Z" fill="#3F3D56"/>
<path d="M424.148 399.406H418.291V405.076H424.681V399.406H424.148Z" fill="#3F3D56"/>
<path d="M435.33 389.2H428.941V394.87H435.33V389.2Z" fill="#3F3D56"/>
<path d="M435.33 399.406H428.941V405.076H435.33V399.406Z" fill="#3F3D56"/>
<path d="M179.934 283.169L174.609 278.633L204.427 250.282H280.037V275.231L231.051 310.386L179.934 283.169Z" fill="#3F3D56"/>
<path d="M293.823 266.186V250.849H283.784V254.605L280.037 250.282L255.544 278.633L245.96 285.437L231.099 401.056L253.51 424.921H305.596V279.767L293.823 266.186Z" fill="#CCCCCC"/>
<path d="M255.544 278.633H174.609V424.921H255.544V278.633Z" fill="#F2F2F2"/>
<path d="M220.933 389.2H206.024V424.922H220.933V389.2Z" fill="#CCCCCC"/>
<path d="M190.05 399.406V393.736H183.661V399.406H189.518H190.05Z" fill="#3F3D56"/>
<path d="M189.518 403.942H183.661V409.613H190.05V403.942H189.518Z" fill="#3F3D56"/>
<path d="M200.7 393.736H194.31V399.406H200.7V393.736Z" fill="#3F3D56"/>
<path d="M200.7 403.942H194.31V409.613H200.7V403.942Z" fill="#3F3D56"/>
<path d="M233.712 399.406V393.736H227.323V399.406H233.18H233.712Z" fill="#3F3D56"/>
<path d="M233.18 403.942H227.323V409.613H233.712V403.942H233.18Z" fill="#3F3D56"/>
<path d="M244.362 393.736H237.972V399.406H244.362V393.736Z" fill="#3F3D56"/>
<path d="M244.362 403.942H237.972V409.613H244.362V403.942Z" fill="#3F3D56"/>
<path d="M278.44 286.004V280.334H272.05V286.004H277.907H278.44Z" fill="#3F3D56"/>
<path d="M277.907 290.541H272.05V296.21H278.44V290.541H277.907Z" fill="#3F3D56"/>
<path d="M289.089 280.334H282.7V286.004H289.089V280.334Z" fill="#3F3D56"/>
<path d="M289.089 290.54H282.7V296.21H289.089V290.54Z" fill="#3F3D56"/>
<path d="M278.44 317.757V312.086H272.05V317.757H277.907H278.44Z" fill="#3F3D56"/>
<path d="M277.907 322.293H272.05V327.963H278.44V322.293H277.907Z" fill="#3F3D56"/>
<path d="M289.089 312.087H282.7V317.757H289.089V312.087Z" fill="#3F3D56"/>
<path d="M289.089 322.293H282.7V327.963H289.089V322.293Z" fill="#3F3D56"/>
<path d="M278.44 349.509V343.839H272.05V349.509H277.907H278.44Z" fill="#3F3D56"/>
<path d="M277.907 354.045H272.05V359.715H278.44V354.045H277.907Z" fill="#3F3D56"/>
<path d="M289.089 343.839H282.7V349.509H289.089V343.839Z" fill="#3F3D56"/>
<path d="M289.089 354.045H282.7V359.715H289.089V354.045Z" fill="#3F3D56"/>
<path d="M278.44 381.262V375.591H272.05V381.262H277.907H278.44Z" fill="#3F3D56"/>
<path d="M277.907 385.798H272.05V391.468H278.44V385.798H277.907Z" fill="#3F3D56"/>
<path d="M289.089 375.592H282.7V381.262H289.089V375.592Z" fill="#3F3D56"/>
<path d="M289.089 385.798H282.7V391.468H289.089V385.798Z" fill="#3F3D56"/>
<path d="M245.427 286.004H183.661V299.612H245.427V286.004Z" fill="#3F3D56"/>
<path d="M245.427 313.221H183.661V326.829H245.427V313.221Z" fill="#3F3D56"/>
<path d="M245.427 340.437H183.661V354.045H245.427V340.437Z" fill="#3F3D56"/>
<path d="M245.427 367.653H183.661V381.262H245.427V367.653Z" fill="#3F3D56"/>
<path d="M491.133 283.169L485.809 278.633L515.627 250.282H591.237V275.231L542.25 310.386L491.133 283.169Z" fill="#3F3D56"/>
<path d="M605.022 266.186V250.849H594.984V254.605L591.237 250.282L566.743 278.633L557.159 285.437L542.298 401.056L564.71 424.921H616.795V279.767L605.022 266.186Z" fill="#CCCCCC"/>
<path d="M566.743 278.633H485.809V424.921H566.743V278.633Z" fill="#F2F2F2"/>
<path d="M532.133 389.2H517.224V424.922H532.133V389.2Z" fill="#CCCCCC"/>
<path d="M501.25 399.406V393.736H494.861V399.406H500.718H501.25Z" fill="#3F3D56"/>
<path d="M500.718 403.942H494.861V409.613H501.25V403.942H500.718Z" fill="#3F3D56"/>
<path d="M511.899 393.736H505.51V399.406H511.899V393.736Z" fill="#3F3D56"/>
<path d="M511.899 403.942H505.51V409.613H511.899V403.942Z" fill="#3F3D56"/>
<path d="M544.912 399.406V393.736H538.523V399.406H544.38H544.912Z" fill="#3F3D56"/>
<path d="M544.38 403.942H538.523V409.613H544.912V403.942H544.38Z" fill="#3F3D56"/>
<path d="M555.562 393.736H549.172V399.406H555.562V393.736Z" fill="#3F3D56"/>
<path d="M555.562 403.942H549.172V409.613H555.562V403.942Z" fill="#3F3D56"/>
<path d="M589.639 286.004V280.334H583.25V286.004H589.107H589.639Z" fill="#3F3D56"/>
<path d="M589.107 290.541H583.25V296.21H589.639V290.541H589.107Z" fill="#3F3D56"/>
<path d="M600.289 280.334H593.899V286.004H600.289V280.334Z" fill="#3F3D56"/>
<path d="M600.289 290.54H593.899V296.21H600.289V290.54Z" fill="#3F3D56"/>
<path d="M589.639 317.757V312.086H583.25V317.757H589.107H589.639Z" fill="#3F3D56"/>
<path d="M589.107 322.293H583.25V327.963H589.639V322.293H589.107Z" fill="#3F3D56"/>
<path d="M600.289 312.087H593.899V317.757H600.289V312.087Z" fill="#3F3D56"/>
<path d="M600.289 322.293H593.899V327.963H600.289V322.293Z" fill="#3F3D56"/>
<path d="M589.639 349.509V343.839H583.25V349.509H589.107H589.639Z" fill="#3F3D56"/>
<path d="M589.107 354.045H583.25V359.715H589.639V354.045H589.107Z" fill="#3F3D56"/>
<path d="M600.289 343.839H593.899V349.509H600.289V343.839Z" fill="#3F3D56"/>
<path d="M600.289 354.045H593.899V359.715H600.289V354.045Z" fill="#3F3D56"/>
<path d="M589.639 381.262V375.591H583.25V381.262H589.107H589.639Z" fill="#3F3D56"/>
<path d="M589.107 385.798H583.25V391.468H589.639V385.798H589.107Z" fill="#3F3D56"/>
<path d="M600.289 375.592H593.899V381.262H600.289V375.592Z" fill="#3F3D56"/>
<path d="M600.289 385.798H593.899V391.468H600.289V385.798Z" fill="#3F3D56"/>
<path d="M556.627 286.004H494.861V299.612H556.627V286.004Z" fill="#3F3D56"/>
<path d="M556.627 313.221H494.861V326.829H556.627V313.221Z" fill="#3F3D56"/>
<path d="M556.627 340.437H494.861V354.045H556.627V340.437Z" fill="#3F3D56"/>
<path d="M556.627 367.653H494.861V381.262H556.627V367.653Z" fill="#3F3D56"/>
<path d="M661.791 283.169L656.467 278.633L686.285 250.282H761.895V275.231L712.908 310.386L661.791 283.169Z" fill="#3F3D56"/>
<path d="M775.68 266.186V250.849H765.641V254.605L761.895 250.282L737.401 278.633L727.817 285.437L712.956 401.056L735.368 424.921H787.453V279.767L775.68 266.186Z" fill="#CCCCCC"/>
<path d="M737.401 278.633H656.467V424.921H737.401V278.633Z" fill="#F2F2F2"/>
<path d="M702.791 389.2H687.882V424.922H702.791V389.2Z" fill="#CCCCCC"/>
<path d="M671.908 399.406V393.736H665.519V399.406H671.376H671.908Z" fill="#3F3D56"/>
<path d="M671.376 403.942H665.519V409.613H671.908V403.942H671.376Z" fill="#3F3D56"/>
<path d="M682.557 393.736H676.168V399.406H682.557V393.736Z" fill="#3F3D56"/>
<path d="M682.557 403.942H676.168V409.613H682.557V403.942Z" fill="#3F3D56"/>
<path d="M715.57 399.406V393.736H709.181V399.406H715.038H715.57Z" fill="#3F3D56"/>
<path d="M715.038 403.942H709.181V409.613H715.57V403.942H715.038Z" fill="#3F3D56"/>
<path d="M726.22 393.736H719.83V399.406H726.22V393.736Z" fill="#3F3D56"/>
<path d="M726.22 403.942H719.83V409.613H726.22V403.942Z" fill="#3F3D56"/>
<path d="M760.297 286.004V280.334H753.908V286.004H759.765H760.297Z" fill="#3F3D56"/>
<path d="M759.765 290.541H753.908V296.21H760.297V290.541H759.765Z" fill="#3F3D56"/>
<path d="M770.947 280.334H764.557V286.004H770.947V280.334Z" fill="#3F3D56"/>
<path d="M770.947 290.54H764.557V296.21H770.947V290.54Z" fill="#3F3D56"/>
<path d="M760.297 317.757V312.086H753.908V317.757H759.765H760.297Z" fill="#3F3D56"/>
<path d="M759.765 322.293H753.908V327.963H760.297V322.293H759.765Z" fill="#3F3D56"/>
<path d="M770.947 312.087H764.557V317.757H770.947V312.087Z" fill="#3F3D56"/>
<path d="M770.947 322.293H764.557V327.963H770.947V322.293Z" fill="#3F3D56"/>
<path d="M760.297 349.509V343.839H753.908V349.509H759.765H760.297Z" fill="#3F3D56"/>
<path d="M759.765 354.045H753.908V359.715H760.297V354.045H759.765Z" fill="#3F3D56"/>
<path d="M770.947 343.839H764.557V349.509H770.947V343.839Z" fill="#3F3D56"/>
<path d="M770.947 354.045H764.557V359.715H770.947V354.045Z" fill="#3F3D56"/>
<path d="M760.297 381.262V375.591H753.908V381.262H759.765H760.297Z" fill="#3F3D56"/>
<path d="M759.765 385.798H753.908V391.468H760.297V385.798H759.765Z" fill="#3F3D56"/>
<path d="M770.947 375.592H764.557V381.262H770.947V375.592Z" fill="#3F3D56"/>
<path d="M770.947 385.798H764.557V391.468H770.947V385.798Z" fill="#3F3D56"/>
<path d="M727.285 286.004H665.519V299.612H727.285V286.004Z" fill="#3F3D56"/>
<path d="M727.285 313.221H665.519V326.829H727.285V313.221Z" fill="#3F3D56"/>
<path d="M727.285 340.437H665.519V354.045H727.285V340.437Z" fill="#3F3D56"/>
<path d="M727.285 367.653H665.519V381.262H727.285V367.653Z" fill="#3F3D56"/>
<path d="M159.458 359.394H157.914V424.356H159.458V359.394Z" fill="#3F3D56"/>
<path d="M173.712 367.672C173.81 390.388 158.802 408.876 158.802 408.876C158.802 408.876 143.635 390.536 143.536 367.82C143.438 345.104 158.446 326.616 158.446 326.616C158.446 326.616 173.613 344.956 173.712 367.672Z" fill="#07A6FF"/>
<path d="M313.9 359.394H312.356V424.356H313.9V359.394Z" fill="#3F3D56"/>
<path d="M328.153 367.672C328.252 390.388 313.244 408.876 313.244 408.876C313.244 408.876 298.076 390.536 297.978 367.82C297.88 345.104 312.888 326.616 312.888 326.616C312.888 326.616 328.055 344.956 328.153 367.672Z" fill="#137C02"/>
<path d="M622.011 359.394H620.467V424.356H622.011V359.394Z" fill="#3F3D56"/>
<path d="M636.264 367.672C636.363 390.388 621.355 408.876 621.355 408.876C621.355 408.876 606.187 390.536 606.089 367.82C605.991 345.104 620.999 326.616 620.999 326.616C620.999 326.616 636.166 344.956 636.264 367.672Z" fill="#137C02"/>
<path d="M416.99 141.477C433.196 141.477 446.334 138.33 446.334 134.447C446.334 130.564 433.196 127.416 416.99 127.416C400.784 127.416 387.646 130.564 387.646 134.447C387.646 138.33 400.784 141.477 416.99 141.477Z" fill="#07A6FF"/>
<path d="M450.195 36.1814C450.195 56.1638 416.218 112.656 416.218 112.656C416.218 112.656 382.24 56.1638 382.24 36.1814C382.24 26.5855 385.82 17.3826 392.192 10.5973C398.564 3.81195 407.206 0 416.218 0C425.229 0 433.871 3.81195 440.243 10.5973C446.615 17.3826 450.195 26.5855 450.195 36.1814Z" fill="#07A6FF"/>
<path d="M416.218 56.7392C426.879 56.7392 435.523 47.5353 435.523 36.1816C435.523 24.828 426.879 15.624 416.218 15.624C405.556 15.624 396.912 24.828 396.912 36.1816C396.912 47.5353 405.556 56.7392 416.218 56.7392Z" fill="#F2F2F2"/>
</svg>
